<svg viewBox="0 0 800 600" xmlns="http://www.w3.org/2000/svg"><defs><filter id="g"><feTurbulence type="fractalNoise" baseFrequency="0.65" numOctaves="3" stitchTiles="stitch"/><feColorMatrix type="saturate" values="0"/></filter><linearGradient id="bg" x1="0" y1="0" x2="0" y2="1"><stop offset="0%" stop-color="#D8D4CE"/><stop offset="60%" stop-color="#B0A898"/><stop offset="100%" stop-color="#2A2420"/></linearGradient></defs><rect width="800" height="600" fill="url(#bg)"/><path d="M0,480 L200,300 L320,380 L450,250 L580,340 L720,220 L800,280 L800,600 L0,600Z" fill="#3A342C" opacity="0.7"/><path d="M0,520 C200,505 400,515 800,500 L800,600 L0,600Z" fill="#1C1510" opacity="0.85"/><rect x="0" y="380" width="800" height="50" fill="white" opacity="0.06"/><path d="M20,180 C100,170 650,188 780,180" fill="none" stroke="#FAF4E8" stroke-width="0.7" opacity="0.4"/><path d="M20,198 C147,188 638,206 780,198" fill="none" stroke="#F5EEE0" stroke-width="0.7" opacity="0.47000000000000003"/><path d="M20,216 C158,206 608,224 780,216" fill="none" stroke="#EDE6D8" stroke-width="0.7" opacity="0.54"/><path d="M20,234 C126,224 575,242 780,234" fill="none" stroke="#FAF4E8" stroke-width="0.7" opacity="0.6100000000000001"/><path d="M20,252 C73,242 553,260 780,252" fill="none" stroke="#F5EEE0" stroke-width="0.7" opacity="0.68"/><path d="M20,270 C41,260 553,278 780,270" fill="none" stroke="#EDE6D8" stroke-width="0.7" opacity="0.4"/><path d="M20,288 C54,278 575,296 780,288" fill="none" stroke="#FAF4E8" stroke-width="0.7" opacity="0.47000000000000003"/><path d="M20,306 C101,296 609,314 780,306" fill="none" stroke="#F5EEE0" stroke-width="0.7" opacity="0.54"/><path d="M20,324 C148,314 639,332 780,324" fill="none" stroke="#EDE6D8" stroke-width="0.7" opacity="0.6100000000000001"/><path d="M20,342 C158,332 650,350 780,342" fill="none" stroke="#FAF4E8" stroke-width="0.7" opacity="0.68"/><path d="M20,360 C125,350 638,368 780,360" fill="none" stroke="#F5EEE0" stroke-width="0.7" opacity="0.4"/><path d="M20,378 C73,368 608,386 780,378" fill="none" stroke="#EDE6D8" stroke-width="0.7" opacity="0.47000000000000003"/><path d="M20,396 C41,386 574,404 780,396" fill="none" stroke="#FAF4E8" stroke-width="0.7" opacity="0.54"/><path d="M20,414 C54,404 553,422 780,414" fill="none" stroke="#F5EEE0" stroke-width="0.7" opacity="0.6100000000000001"/><path d="M20,432 C102,422 553,440 780,432" fill="none" stroke="#EDE6D8" stroke-width="0.7" opacity="0.68"/><path d="M20,450 C148,440 576,458 780,450" fill="none" stroke="#FAF4E8" stroke-width="0.7" opacity="0.4"/><path d="M20,468 C158,458 610,476 780,468" fill="none" stroke="#F5EEE0" stroke-width="0.7" opacity="0.47000000000000003"/><path d="M20,486 C124,476 639,494 780,486" fill="none" stroke="#EDE6D8" stroke-width="0.7" opacity="0.54"/><rect width="800" height="600" filter="url(#g)" opacity="0.04"/></svg>