<svg viewBox="0 0 800 600" xmlns="http://www.w3.org/2000/svg"><defs><filter id="g"><feTurbulence type="fractalNoise" baseFrequency="0.65" numOctaves="3" stitchTiles="stitch"/><feColorMatrix type="saturate" values="0"/></filter><linearGradient id="bg" x1="0" y1="0" x2="0.2" y2="1"><stop offset="0%" stop-color="#F5EDD8"/><stop offset="100%" stop-color="#E8DEC8"/></linearGradient><pattern id="wv" width="5" height="5" patternUnits="userSpaceOnUse"><line x1="0" y1="0" x2="5" y2="0" stroke="#C8B888" stroke-width="0.3" opacity="0.4"/><line x1="0" y1="0" x2="0" y2="5" stroke="#C8B888" stroke-width="0.3" opacity="0.4"/></pattern></defs><rect width="800" height="600" fill="url(#bg)"/><rect width="800" height="600" fill="url(#wv)" opacity="0.25"/><line x1="400" y1="40" x2="400" y2="560" stroke="#8B7B6B" stroke-width="1" opacity="0.5"/><circle cx="400" cy="100" r="4" fill="#8B7B6B" opacity="0.5"/><circle cx="400" cy="300" r="4" fill="#8B7B6B" opacity="0.5"/><circle cx="400" cy="500" r="4" fill="#8B7B6B" opacity="0.5"/><line x1="370" y1="100" x2="390" y2="100" stroke="#8B7B6B" stroke-width="1" opacity="0.4"/><line x1="370" y1="300" x2="390" y2="300" stroke="#8B7B6B" stroke-width="1" opacity="0.4"/><line x1="370" y1="500" x2="390" y2="500" stroke="#8B7B6B" stroke-width="1" opacity="0.4"/><path d="M240,80 C280,200 320,380 300,520" fill="none" stroke="#C8B888" stroke-width="0.5" opacity="0.3"/><path d="M560,80 C520,200 480,380 500,520" fill="none" stroke="#C8B888" stroke-width="0.5" opacity="0.3"/><rect width="800" height="600" filter="url(#g)" opacity="0.04"/></svg>