<svg viewBox="0 0 800 600" xmlns="http://www.w3.org/2000/svg"><defs><filter id="g"><feTurbulence type="fractalNoise" baseFrequency="0.65" numOctaves="3" stitchTiles="stitch"/><feColorMatrix type="saturate" values="0"/></filter><linearGradient id="bg" x1="0" y1="0" x2="0.3" y2="1"><stop offset="0%" stop-color="#F0EBE3"/><stop offset="100%" stop-color="#DDD7C8"/></linearGradient></defs><rect width="800" height="600" fill="url(#bg)"/><circle cx="400" cy="300" r="180" fill="#F8F4EE" opacity="0.9"/><circle cx="400" cy="300" r="180" fill="none" stroke="#C8BCA8" stroke-width="2"/><circle cx="400" cy="300" r="120" fill="#F4EEE6" opacity="0.6"/><circle cx="400" cy="300" r="120" fill="none" stroke="#C0B4A0" stroke-width="1.2" opacity="0.6"/><circle cx="400" cy="300" r="55" fill="#ECE5DB" opacity="0.7"/><circle cx="400" cy="300" r="55" fill="none" stroke="#B8AA98" stroke-width="1" opacity="0.5"/><line x1="458" y1="300" x2="578" y2="300" stroke="#C8BCA8" stroke-width="0.6" opacity="0.4"/><line x1="456" y1="315" x2="572" y2="346" stroke="#C8BCA8" stroke-width="0.6" opacity="0.4"/><line x1="450" y1="329" x2="554" y2="389" stroke="#C8BCA8" stroke-width="0.6" opacity="0.4"/><line x1="441" y1="341" x2="526" y2="426" stroke="#C8BCA8" stroke-width="0.6" opacity="0.4"/><line x1="429" y1="350" x2="489" y2="454" stroke="#C8BCA8" stroke-width="0.6" opacity="0.4"/><line x1="415" y1="356" x2="446" y2="472" stroke="#C8BCA8" stroke-width="0.6" opacity="0.4"/><line x1="400" y1="358" x2="400" y2="478" stroke="#C8BCA8" stroke-width="0.6" opacity="0.4"/><line x1="385" y1="356" x2="354" y2="472" stroke="#C8BCA8" stroke-width="0.6" opacity="0.4"/><line x1="371" y1="350" x2="311" y2="454" stroke="#C8BCA8" stroke-width="0.6" opacity="0.4"/><line x1="359" y1="341" x2="274" y2="426" stroke="#C8BCA8" stroke-width="0.6" opacity="0.4"/><line x1="350" y1="329" x2="246" y2="389" stroke="#C8BCA8" stroke-width="0.6" opacity="0.4"/><line x1="344" y1="315" x2="228" y2="346" stroke="#C8BCA8" stroke-width="0.6" opacity="0.4"/><line x1="342" y1="300" x2="222" y2="300" stroke="#C8BCA8" stroke-width="0.6" opacity="0.4"/><line x1="344" y1="285" x2="228" y2="254" stroke="#C8BCA8" stroke-width="0.6" opacity="0.4"/><line x1="350" y1="271" x2="246" y2="211" stroke="#C8BCA8" stroke-width="0.6" opacity="0.4"/><line x1="359" y1="259" x2="274" y2="174" stroke="#C8BCA8" stroke-width="0.6" opacity="0.4"/><line x1="371" y1="250" x2="311" y2="146" stroke="#C8BCA8" stroke-width="0.6" opacity="0.4"/><line x1="385" y1="244" x2="354" y2="128" stroke="#C8BCA8" stroke-width="0.6" opacity="0.4"/><line x1="400" y1="242" x2="400" y2="122" stroke="#C8BCA8" stroke-width="0.6" opacity="0.4"/><line x1="415" y1="244" x2="446" y2="128" stroke="#C8BCA8" stroke-width="0.6" opacity="0.4"/><line x1="429" y1="250" x2="489" y2="146" stroke="#C8BCA8" stroke-width="0.6" opacity="0.4"/><line x1="441" y1="259" x2="526" y2="174" stroke="#C8BCA8" stroke-width="0.6" opacity="0.4"/><line x1="450" y1="271" x2="554" y2="211" stroke="#C8BCA8" stroke-width="0.6" opacity="0.4"/><line x1="456" y1="285" x2="572" y2="254" stroke="#C8BCA8" stroke-width="0.6" opacity="0.4"/><rect width="800" height="600" filter="url(#g)" opacity="0.04"/></svg>