<svg viewBox="0 0 1200 675" xmlns="http://www.w3.org/2000/svg"><defs><filter id="g"><feTurbulence type="fractalNoise" baseFrequency="0.65" numOctaves="3" stitchTiles="stitch"/><feColorMatrix type="saturate" values="0"/></filter><linearGradient id="sky" x1="0" y1="0" x2="0" y2="1"><stop offset="0%" stop-color="#E8E4E0"/><stop offset="100%" stop-color="#D0CCC8"/></linearGradient><linearGradient id="chbg0" x1="0" y1="0" x2="1" y2="0.7"><stop offset="0%" stop-color="#FEFCF5"/><stop offset="100%" stop-color="#EDE8DA"/></linearGradient><pattern id="chwv0" width="5" height="5" patternUnits="userSpaceOnUse"><line x1="0" y1="0" x2="5" y2="0" stroke="#D4CAB8" stroke-width="0.3" opacity="0.4"/><line x1="0" y1="0" x2="0" y2="5" stroke="#D4CAB8" stroke-width="0.3" opacity="0.4"/></pattern><linearGradient id="chbg1" x1="0" y1="0" x2="1" y2="0.7"><stop offset="0%" stop-color="#38332F"/><stop offset="100%" stop-color="#1E1B18"/></linearGradient><pattern id="chwv1" width="5" height="5" patternUnits="userSpaceOnUse"><line x1="0" y1="0" x2="5" y2="0" stroke="#3A3632" stroke-width="0.3" opacity="0.4"/><line x1="0" y1="0" x2="0" y2="5" stroke="#3A3632" stroke-width="0.3" opacity="0.4"/></pattern><linearGradient id="chbg2" x1="0" y1="0" x2="1" y2="0.7"><stop offset="0%" stop-color="#E2D2B8"/><stop offset="100%" stop-color="#C8B898"/></linearGradient><pattern id="chwv2" width="5" height="5" patternUnits="userSpaceOnUse"><line x1="0" y1="0" x2="5" y2="0" stroke="#A89870" stroke-width="0.3" opacity="0.4"/><line x1="0" y1="0" x2="0" y2="5" stroke="#A89870" stroke-width="0.3" opacity="0.4"/></pattern><linearGradient id="chbg3" x1="0" y1="0" x2="1" y2="0.7"><stop offset="0%" stop-color="#B0C0C0"/><stop offset="100%" stop-color="#90A0A0"/></linearGradient><pattern id="chwv3" width="5" height="5" patternUnits="userSpaceOnUse"><line x1="0" y1="0" x2="5" y2="0" stroke="#708080" stroke-width="0.3" opacity="0.4"/><line x1="0" y1="0" x2="0" y2="5" stroke="#708080" stroke-width="0.3" opacity="0.4"/></pattern><linearGradient id="chbg4" x1="0" y1="0" x2="1" y2="0.7"><stop offset="0%" stop-color="#A87040"/><stop offset="100%" stop-color="#885030"/></linearGradient><pattern id="chwv4" width="5" height="5" patternUnits="userSpaceOnUse"><line x1="0" y1="0" x2="5" y2="0" stroke="#5A3818" stroke-width="0.3" opacity="0.4"/><line x1="0" y1="0" x2="0" y2="5" stroke="#5A3818" stroke-width="0.3" opacity="0.4"/></pattern></defs><rect width="1200" height="675" fill="url(#sky)"/><path d="M60,20 C95,5 230,5 260,35 C275,100 270,320 265,655 C195,680 115,678 65,655 C50,320 55,100 60,20Z" fill="#F8F3E8" opacity="0.3"/><path d="M60,20 C95,5 230,5 260,35 C275,100 270,320 265,655 C195,680 115,678 65,655 C50,320 55,100 60,20Z" fill="url(#chbg0)" opacity="0.85"/><path d="M60,20 C95,5 230,5 260,35 C275,100 270,320 265,655 C195,680 115,678 65,655 C50,320 55,100 60,20Z" fill="url(#chwv0)" opacity="0.55"/><path d="M90,45 C102,200 98,400 108,630" fill="none" stroke="#D4CAB8" stroke-width="0.6" opacity="0.45"/><path d="M65,22 C52,180 55,360 66,500" fill="none" stroke="#FEFEFC" stroke-width="1.8" opacity="0.5"/><path d="M280,20 C315,5 450,5 480,35 C495,100 490,320 485,655 C415,680 335,678 285,655 C270,320 275,100 280,20Z" fill="#1A1612" opacity="0.3"/><path d="M280,20 C315,5 450,5 480,35 C495,100 490,320 485,655 C415,680 335,678 285,655 C270,320 275,100 280,20Z" fill="url(#chbg1)" opacity="0.85"/><path d="M280,20 C315,5 450,5 480,35 C495,100 490,320 485,655 C415,680 335,678 285,655 C270,320 275,100 280,20Z" fill="url(#chwv1)" opacity="0.55"/><path d="M310,45 C322,200 318,400 328,630" fill="none" stroke="#3A3632" stroke-width="0.6" opacity="0.45"/><path d="M285,22 C272,180 275,360 286,500" fill="none" stroke="#504845" stroke-width="1.8" opacity="0.5"/><path d="M500,20 C535,5 670,5 700,35 C715,100 710,320 705,655 C635,680 555,678 505,655 C490,320 495,100 500,20Z" fill="#BEB098" opacity="0.3"/><path d="M500,20 C535,5 670,5 700,35 C715,100 710,320 705,655 C635,680 555,678 505,655 C490,320 495,100 500,20Z" fill="url(#chbg2)" opacity="0.85"/><path d="M500,20 C535,5 670,5 700,35 C715,100 710,320 705,655 C635,680 555,678 505,655 C490,320 495,100 500,20Z" fill="url(#chwv2)" opacity="0.55"/><path d="M530,45 C542,200 538,400 548,630" fill="none" stroke="#A89870" stroke-width="0.6" opacity="0.45"/><path d="M505,22 C492,180 495,360 506,500" fill="none" stroke="#F0E8D8" stroke-width="1.8" opacity="0.5"/><path d="M720,20 C755,5 890,5 920,35 C935,100 930,320 925,655 C855,680 775,678 725,655 C710,320 715,100 720,20Z" fill="#808C8C" opacity="0.3"/><path d="M720,20 C755,5 890,5 920,35 C935,100 930,320 925,655 C855,680 775,678 725,655 C710,320 715,100 720,20Z" fill="url(#chbg3)" opacity="0.85"/><path d="M720,20 C755,5 890,5 920,35 C935,100 930,320 925,655 C855,680 775,678 725,655 C710,320 715,100 720,20Z" fill="url(#chwv3)" opacity="0.55"/><path d="M750,45 C762,200 758,400 768,630" fill="none" stroke="#708080" stroke-width="0.6" opacity="0.45"/><path d="M725,22 C712,180 715,360 726,500" fill="none" stroke="#D8E8E8" stroke-width="1.8" opacity="0.5"/><path d="M940,20 C975,5 1110,5 1140,35 C1155,100 1150,320 1145,655 C1075,680 995,678 945,655 C930,320 935,100 940,20Z" fill="#6A4828" opacity="0.3"/><path d="M940,20 C975,5 1110,5 1140,35 C1155,100 1150,320 1145,655 C1075,680 995,678 945,655 C930,320 935,100 940,20Z" fill="url(#chbg4)" opacity="0.85"/><path d="M940,20 C975,5 1110,5 1140,35 C1155,100 1150,320 1145,655 C1075,680 995,678 945,655 C930,320 935,100 940,20Z" fill="url(#chwv4)" opacity="0.55"/><path d="M970,45 C982,200 978,400 988,630" fill="none" stroke="#5A3818" stroke-width="0.6" opacity="0.45"/><path d="M945,22 C932,180 935,360 946,500" fill="none" stroke="#E0A870" stroke-width="1.8" opacity="0.5"/><rect width="1200" height="675" filter="url(#g)" opacity="0.04"/></svg>