<svg viewBox="0 0 600 800" xmlns="http://www.w3.org/2000/svg"><defs><filter id="g"><feTurbulence type="fractalNoise" baseFrequency="0.65" numOctaves="3" stitchTiles="stitch"/><feColorMatrix type="saturate" values="0"/></filter><linearGradient id="stone" x1="0" y1="0" x2="1" y2="0.8"><stop offset="0%" stop-color="#C0B8B0"/><stop offset="50%" stop-color="#AEA8A0"/><stop offset="100%" stop-color="#9A9490"/></linearGradient><linearGradient id="fab" x1="0" y1="0" x2="0.8" y2="0.2"><stop offset="0%" stop-color="#FEFCF5"/><stop offset="100%" stop-color="#F0EAE0"/></linearGradient><pattern id="wv" width="5" height="5" patternUnits="userSpaceOnUse"><line x1="0" y1="0" x2="5" y2="0" stroke="#D8D0C0" stroke-width="0.3" opacity="0.4"/><line x1="0" y1="0" x2="0" y2="5" stroke="#D8D0C0" stroke-width="0.3" opacity="0.4"/></pattern><pattern id="stoneTexture" width="8" height="8" patternUnits="userSpaceOnUse"><rect width="8" height="8" fill="transparent"/><line x1="0" y1="0" x2="8" y2="8" stroke="#B0A898" stroke-width="0.3" opacity="0.2"/><line x1="8" y1="0" x2="0" y2="8" stroke="#B0A898" stroke-width="0.2" opacity="0.15"/></pattern></defs><rect width="600" height="800" fill="url(#stone)"/><rect width="600" height="800" fill="url(#stoneTexture)"/><path d="M-40,200 C100,160 380,140 680,190 L680,600 L-40,600Z" fill="url(#fab)"/><path d="M-40,200 C100,160 380,140 680,190 L680,600 L-40,600Z" fill="url(#wv)" opacity="0.6"/><path d="M-38,202 C98,162 378,142 678,192" fill="none" stroke="#FEFEFC" stroke-width="2" opacity="0.5"/><path d="M80,240 C95,380 90,510 105,650" fill="none" stroke="#D4CAB8" stroke-width="0.7" opacity="0.4"/><path d="M340,160 C352,300 345,470 358,640" fill="none" stroke="#D4CAB8" stroke-width="0.6" opacity="0.35"/><rect width="600" height="800" filter="url(#g)" opacity="0.04"/></svg>