<svg xmlns="http://www.w3.org/2000/svg" viewBox="0 0 800 600" width="800" height="600"><defs><radialGradient id="bg" cx="45%" cy="38%" r="70%"><stop offset="0%" stop-color="#4A3C28"/><stop offset="55%" stop-color="#2E2418"/><stop offset="100%" stop-color="#1A140C"/></radialGradient><linearGradient id="hand" x1="0%" y1="0%" x2="100%" y2="100%"><stop offset="0%" stop-color="#C89060"/><stop offset="100%" stop-color="#8A5C30"/></linearGradient><linearGradient id="fiber" x1="0%" y1="50%" x2="100%" y2="50%"><stop offset="0%" stop-color="rgba(240,232,215,0)"/><stop offset="20%" stop-color="rgba(240,232,215,0.85)"/><stop offset="80%" stop-color="rgba(240,232,215,0.75)"/><stop offset="100%" stop-color="rgba(240,232,215,0)"/></linearGradient><linearGradient id="comb" x1="0%" y1="0%" x2="0%" y2="100%"><stop offset="0%" stop-color="#8A8070"/><stop offset="100%" stop-color="#50483A"/></linearGradient><filter id="glow"><feGaussianBlur stdDeviation="4" result="b"/><feMerge><feMergeNode in="b"/><feMergeNode in="SourceGraphic"/></feMerge></filter><filter id="grain" x="-5%" y="-5%" width="110%" height="110%"><feTurbulence type="fractalNoise" baseFrequency="0.72" numOctaves="4" stitchTiles="stitch" result="n"/><feColorMatrix in="n" type="saturate" values="0" result="g"/><feBlend in="SourceGraphic" in2="g" mode="soft-light" result="b"/><feComposite in="b" in2="SourceGraphic" operator="in"/></filter><radialGradient id="vign" cx="50%" cy="50%" r="70%"><stop offset="0%" stop-color="rgba(0,0,0,0)"/><stop offset="68%" stop-color="rgba(0,0,0,0)"/><stop offset="100%" stop-color="rgba(0,0,0,0.5)"/></radialGradient></defs><rect width="800" height="600" fill="url(#bg)"/><ellipse cx="580" cy="250" rx="200" ry="170" fill="rgba(200,150,80,0.12)" filter="url(#glow)"/><path d="M 60,480 C 65,440 70,400 80,360 C 90,320 95,280 100,240 C 105,210 108,190 115,175 C 118,168 123,163 130,165 C 137,167 140,175 138,188 C 136,200 130,218 128,238 C 126,252 128,258 132,255 C 138,250 142,235 146,215 C 150,195 152,170 158,158 C 162,150 168,145 175,147 C 182,149 185,158 183,172 C 181,188 175,210 173,232 C 171,248 173,255 178,252 C 185,247 190,228 195,208 C 200,188 202,165 210,155 C 215,148 222,145 228,148 C 234,151 236,162 234,178 C 232,196 225,220 223,242 C 221,256 224,262 230,258 C 237,252 244,232 250,212 C 256,192 260,170 268,162 C 274,156 282,154 287,158 C 292,162 293,173 291,190 C 288,210 280,238 278,265 C 276,292 278,320 275,355 C 272,390 265,420 260,450 C 255,475 252,495 255,510 L 200,540 C 185,520 168,498 148,478 C 128,458 100,448 80,450 Z" fill="url(#hand)" opacity="0.88"/><path d="M 115,175 C 120,162 128,155 134,158 C 128,165 122,178 120,198" stroke="rgba(220,180,130,0.4)" stroke-width="1.5" fill="none"/><path d="M 158,158 C 163,148 172,143 178,147 C 172,154 166,168 164,188" stroke="rgba(220,180,130,0.35)" stroke-width="1.5" fill="none"/><path d="M 140,270 C 240,258 340,252 440,248 C 540,244 640,252 740,260" stroke="url(#fiber)" stroke-width="2.5" fill="none" opacity="0.9" filter="url(#glow)"/><path d="M 145,282 C 245,268 345,262 445,260 C 545,258 640,265 740,275" stroke="url(#fiber)" stroke-width="1.8" fill="none" opacity="0.7"/><path d="M 150,295 C 250,280 350,274 450,272 C 550,270 645,278 740,290" stroke="url(#fiber)" stroke-width="1.5" fill="none" opacity="0.6"/><path d="M 135,258 C 235,244 335,238 435,236 C 535,234 636,242 738,248" stroke="url(#fiber)" stroke-width="2" fill="none" opacity="0.5"/><path d="M 160,308 C 260,292 360,286 460,285 C 560,284 654,292 742,304" stroke="url(#fiber)" stroke-width="1.2" fill="none" opacity="0.45"/><rect x="530" y="180" width="28" height="280" rx="4" fill="url(#comb)" opacity="0.9"/><rect x="530" y="340" width="4" height="120" rx="2" fill="#6A6050" opacity="0.85"/><rect x="538" y="340" width="4" height="125" rx="2" fill="#6A6050" opacity="0.85"/><rect x="546" y="340" width="4" height="122" rx="2" fill="#6A6050" opacity="0.85"/><rect x="554" y="340" width="4" height="118" rx="2" fill="#6A6050" opacity="0.85"/><rect x="532" y="182" width="8" height="280" rx="3" fill="rgba(200,180,140,0.18)"/><rect width="100%" height="100%" fill="rgba(90,80,65,0.04)" filter="url(#grain)"/><rect width="100%" height="100%" fill="url(#vign)"/></svg>