<svg xmlns="http://www.w3.org/2000/svg" viewBox="0 0 800 600" width="800" height="600">
<defs>
  <radialGradient id="bg" cx="52%" cy="48%" r="58%">
    <stop offset="0%" stop-color="#3C2E1A"/>
    <stop offset="45%" stop-color="#251C0E"/>
    <stop offset="100%" stop-color="#100C06"/>
  </radialGradient>
  <radialGradient id="glow" cx="50%" cy="50%" r="50%">
    <stop offset="0%" stop-color="rgba(220,185,120,0.22)"/>
    <stop offset="55%" stop-color="rgba(180,140,80,0.08)"/>
    <stop offset="100%" stop-color="rgba(100,75,40,0)"/>
  </radialGradient>
  <filter id="grain" x="-5%" y="-5%" width="110%" height="110%"><feTurbulence type="fractalNoise" baseFrequency="0.72" numOctaves="4" stitchTiles="stitch" result="n"/><feColorMatrix in="n" type="saturate" values="0" result="g"/><feBlend in="SourceGraphic" in2="g" mode="soft-light" result="b"/><feComposite in="b" in2="SourceGraphic" operator="in"/></filter> <radialGradient id="vign" cx="50%" cy="50%" r="70%"><stop offset="0%" stop-color="rgba(0,0,0,0)"/><stop offset="68%" stop-color="rgba(0,0,0,0)"/><stop offset="100%" stop-color="rgba(0,0,0,0.6)"/></radialGradient>
  <filter id="bf0"><feGaussianBlur stdDeviation="5.3"/></filter>,<filter id="bf1"><feGaussianBlur stdDeviation="2.0"/></filter>,<filter id="bf2"><feGaussianBlur stdDeviation="7.3"/></filter>,<filter id="bf3"><feGaussianBlur stdDeviation="1.4"/></filter>,<filter id="bf4"><feGaussianBlur stdDeviation="1.2"/></filter>,<filter id="bf5"><feGaussianBlur stdDeviation="3.0"/></filter>,<filter id="bf6"><feGaussianBlur stdDeviation="5.7"/></filter>,<filter id="bf7"><feGaussianBlur stdDeviation="2.9"/></filter>,<filter id="bf8"><feGaussianBlur stdDeviation="1.5"/></filter>,<filter id="bf9"><feGaussianBlur stdDeviation="2.8"/></filter>,<filter id="bf10"><feGaussianBlur stdDeviation="1.1"/></filter>,<filter id="bf11"><feGaussianBlur stdDeviation="5.0"/></filter>,<filter id="bf12"><feGaussianBlur stdDeviation="2.3"/></filter>,<filter id="bf13"><feGaussianBlur stdDeviation="2.8"/></filter>,<filter id="bf14"><feGaussianBlur stdDeviation="5.9"/></filter>,<filter id="bf15"><feGaussianBlur stdDeviation="2.0"/></filter>,<filter id="bf16"><feGaussianBlur stdDeviation="4.8"/></filter>,<filter id="bf17"><feGaussianBlur stdDeviation="6.4"/></filter>,<filter id="bf18"><feGaussianBlur stdDeviation="1.4"/></filter>,<filter id="bf19"><feGaussianBlur stdDeviation="2.8"/></filter>,<filter id="bf20"><feGaussianBlur stdDeviation="5.0"/></filter>,<filter id="bf22"><feGaussianBlur stdDeviation="6.2"/></filter>,<filter id="bf23"><feGaussianBlur stdDeviation="3.0"/></filter>,<filter id="bf24"><feGaussianBlur stdDeviation="7.0"/></filter>,<filter id="bf25"><feGaussianBlur stdDeviation="3.0"/></filter>,<filter id="bf26"><feGaussianBlur stdDeviation="5.0"/></filter>,<filter id="bf27"><feGaussianBlur stdDeviation="8.7"/></filter>,<filter id="bf28"><feGaussianBlur stdDeviation="6.8"/></filter>,<filter id="bf29"><feGaussianBlur stdDeviation="6.3"/></filter>,<filter id="bf31"><feGaussianBlur stdDeviation="4.3"/></filter>,<filter id="bf32"><feGaussianBlur stdDeviation="6.0"/></filter>,<filter id="bf33"><feGaussianBlur stdDeviation="2.6"/></filter>,<filter id="bf34"><feGaussianBlur stdDeviation="5.2"/></filter>,<filter id="bf35"><feGaussianBlur stdDeviation="3.7"/></filter>,<filter id="bf36"><feGaussianBlur stdDeviation="6.0"/></filter>,<filter id="bf37"><feGaussianBlur stdDeviation="2.1"/></filter>,<filter id="bf38"><feGaussianBlur stdDeviation="1.3"/></filter>,<filter id="bf39"><feGaussianBlur stdDeviation="6.4"/></filter>,<filter id="bf41"><feGaussianBlur stdDeviation="7.1"/></filter>,<filter id="bf42"><feGaussianBlur stdDeviation="3.6"/></filter>,<filter id="bf44"><feGaussianBlur stdDeviation="8.2"/></filter>,<filter id="bf45"><feGaussianBlur stdDeviation="4.6"/></filter>,<filter id="bf46"><feGaussianBlur stdDeviation="7.0"/></filter>,<filter id="bf47"><feGaussianBlur stdDeviation="5.8"/></filter>,<filter id="bf48"><feGaussianBlur stdDeviation="7.4"/></filter>,<filter id="bf49"><feGaussianBlur stdDeviation="7.6"/></filter>,<filter id="bf50"><feGaussianBlur stdDeviation="3.6"/></filter>,<filter id="bf51"><feGaussianBlur stdDeviation="6.1"/></filter>,<filter id="bf52"><feGaussianBlur stdDeviation="3.1"/></filter>,<filter id="bf53"><feGaussianBlur stdDeviation="6.2"/></filter>,<filter id="bf54"><feGaussianBlur stdDeviation="2.2"/></filter>
</defs>
<rect width="800" height="600" fill="url(#bg)"/>
<rect width="800" height="600" fill="url(#glow)"/>
<path d="M 567.8784631716553,584.5609540905571 C 471.90425474676886,717.5740918916927 523.3549284699984,779.6773338251751 581.9128785325302,791.2226065597224" stroke="rgb(247,242,205)" stroke-width="0.7762820873380406" fill="none" opacity="0.50" filter="url(#bf0)"/><path d="M 465.97298705455614,110.91145053942455 C 558.4181410711608,-1.6668914302135818 512.5821402012662,28.999396523449832 444.3512519939395,81.97561648697956" stroke="rgb(220,215,182)" stroke-width="0.8295581098283946" fill="none" opacity="0.93" filter="url(#bf1)"/><path d="M 702.7212569344556,580.1000096081225 C 550.7472423528088,475.80904891476166 605.1665682575094,467.260358644653 614.1882259471004,465.42735207922703" stroke="rgb(227,222,188)" stroke-width="1.4684982400853186" fill="none" opacity="0.84" filter="url(#bf2)"/><path d="M 389.52567676899434,477.5749489766895 C 298.7672555726249,472.6746752121835 315.6682147782931,519.3458033177012 244.92950736874718,541.907905163207" stroke="rgb(241,236,200)" stroke-width="1.0802623504305302" fill="none" opacity="0.78" filter="url(#bf3)"/><path d="M 528.9262962600333,410.2554428292933 C 568.4612624520378,344.96291956293135 492.1814769865159,403.7979356058531 439.91028314492723,363.40311524372737" stroke="rgb(244,239,203)" stroke-width="2.316953113579075" fill="none" opacity="0.74" filter="url(#bf4)"/><path d="M 169.1724550735671,371.19985800291033 C 228.62432510664803,498.2814534485442 154.94528380440897,547.4776049723505 200.46861879047356,512.8379249346972" stroke="rgb(221,216,183)" stroke-width="2.190257678565831" fill="none" opacity="0.41" filter="url(#bf5)"/><path d="M 202.05897121340968,11.550632481458933 C 53.33748039265629,118.92404914725489 99.58297084067453,110.53366654697243 95.33855568570289,75.7384810466749" stroke="rgb(229,224,190)" stroke-width="1.0527032730150494" fill="none" opacity="0.56" filter="url(#bf6)"/><path d="M 201.17036856972845,175.0550602484509 C 129.46489812253276,105.47556938412527 51.36719488997187,96.16352386836297 49.76385583104275,116.8208708232305" stroke="rgb(233,228,193)" stroke-width="2.208820160099549" fill="none" opacity="0.80" filter="url(#bf7)"/><path d="M 518.041982599243,435.8885072226258 C 479.66482784046093,546.149421015889 544.1248110544257,490.8954524145702 553.2452955454937,457.34892792143" stroke="rgb(237,232,197)" stroke-width="2.0403784442005417" fill="none" opacity="0.56" filter="url(#bf8)"/><path d="M 208.30557432491332,172.07694062053633 C 204.61269763116434,256.1358097183984 249.2513190486352,193.47099998139583 314.3418116711837,199.9855561059985" stroke="rgb(229,224,190)" stroke-width="1.5673115715464518" fill="none" opacity="0.53" filter="url(#bf9)"/><path d="M 437.2260349977296,140.17657221766058 C 366.9639956133324,150.64726112488643 303.6931767524038,74.39367784945716 255.94690592259212,114.23206039873548" stroke="rgb(223,218,185)" stroke-width="0.816103059831039" fill="none" opacity="0.88" filter="url(#bf10)"/><path d="M 627.6479002815904,523.9877549500306 C 503.95534548093565,417.6037864793034 461.5202116512228,443.6337668128908 526.0323289188091,407.7658387909696" stroke="rgb(248,243,206)" stroke-width="2.369449205892283" fill="none" opacity="0.63" filter="url(#bf11)"/><path d="M 195.04041130330734,249.31797564131557 C 297.96319267097715,384.5656298912263 336.77481757749774,468.5601108952733 396.793619428463,446.0626487687705" stroke="rgb(236,231,196)" stroke-width="1.7108652501769028" fill="none" opacity="0.50" filter="url(#bf12)"/><path d="M 271.44307356284116,107.15238031698391 C 265.0895770690113,139.95364145561325 340.58044575867825,63.8838909946935 289.5852610821021,124.31603009961691" stroke="rgb(229,224,190)" stroke-width="1.0822444513127265" fill="none" opacity="0.59" filter="url(#bf13)"/><path d="M 745.3265091709909,206.15334144731605 C 667.8454798928578,141.1691449848513 745.1083645905237,190.8434524291988 768.6547046148553,201.34333923562735" stroke="rgb(226,221,187)" stroke-width="1.3669194537049407" fill="none" opacity="0.85" filter="url(#bf14)"/><path d="M 459.9993531795917,490.46736400468944 C 359.21669009141624,469.76594569212466 373.86051994948957,467.15844659709546 300.89353301617393,422.4901961044634" stroke="rgb(232,227,192)" stroke-width="1.7050805571489036" fill="none" opacity="0.84" filter="url(#bf15)"/><path d="M 144.75285432781675,482.3320878631421 C 97.82173359257285,514.2335078640826 1.9398628145063412,510.3292285137286 75.37756187015475,455.9871257537634" stroke="rgb(224,219,186)" stroke-width="2.3371675873580897" fill="none" opacity="0.48" filter="url(#bf16)"/><path d="M 89.47369851448457,91.34834147735091 C -28.43383302431903,221.57441062194266 -102.40761138309608,238.74787104025017 -37.086533331894316,210.84201041150664" stroke="rgb(229,224,190)" stroke-width="2.2928966382882208" fill="none" opacity="0.61" filter="url(#bf17)"/><path d="M 240.53793926432263,226.26301038981183 C 165.6834161651932,349.6024874568684 258.9091427641324,410.0593503617074 284.11908554113324,374.802394289336" stroke="rgb(243,238,202)" stroke-width="2.139817951484292" fill="none" opacity="0.78" filter="url(#bf18)"/><path d="M 198.53167958644917,412.1166240086268 C 252.27016634249594,511.64386090618336 247.75116462011283,565.8800654410288 231.20626911853833,595.7915880036353" stroke="rgb(239,234,198)" stroke-width="2.011309827552759" fill="none" opacity="0.43" filter="url(#bf19)"/><path d="M 570.922986072037,29.956995561042277 C 585.7681895347923,109.49407984702702 576.0922798015599,144.00569903977157 566.5272930694118,167.25364505265134" stroke="rgb(228,223,189)" stroke-width="1.4978654817654387" fill="none" opacity="0.68" filter="url(#bf20)"/><path d="M 532.8454057878844,308.1114330321725 C 448.27059246112185,307.77939686235186 389.3180901852611,218.82479273766876 436.77848049355816,272.04890823109963" stroke="rgb(238,233,198)" stroke-width="1.0337374941933377" fill="none" opacity="0.48"/><path d="M 704.137802819605,92.28711131363525 C 708.800603708878,19.757388188154437 648.2640300053026,-24.777529603370567 715.8071062116505,-25.26864033478887" stroke="rgb(231,226,192)" stroke-width="2.351030098031333" fill="none" opacity="0.89" filter="url(#bf22)"/><path d="M 397.193652963324,538.9449303879701 C 342.08332723064814,671.327390081733 425.21078374375065,670.9910206639506 387.9487452160538,601.1762720175648" stroke="rgb(251,245,208)" stroke-width="1.6645232818085787" fill="none" opacity="0.67" filter="url(#bf23)"/><path d="M 1.058579163509421,296.7329821817657 C 131.83599857380614,322.3254926853224 210.7701716112024,300.7718405016021 235.41788674598138,303.9023529848487" stroke="rgb(246,241,204)" stroke-width="0.9990103018423951" fill="none" opacity="0.89" filter="url(#bf24)"/><path d="M 417.88864276140885,538.7266626938072 C 498.9632164215618,460.79493186929085 493.6917487606661,458.2747201101438 443.9863084542412,500.84625500186576" stroke="rgb(227,222,188)" stroke-width="1.9691240049009138" fill="none" opacity="0.86" filter="url(#bf25)"/><path d="M 643.2659136669827,506.2997437762533 C 551.0422153501713,579.2745889830621 508.9954310520261,626.670367278075 457.72129979231977,695.6605201183811" stroke="rgb(241,236,200)" stroke-width="1.3816568019639817" fill="none" opacity="0.45" filter="url(#bf26)"/><path d="M 794.2294448017492,51.29076856210304 C 831.4849588937068,32.88182664538908 758.8264219094344,41.28421595992222 726.9153337993703,-20.535696534197996" stroke="rgb(220,215,182)" stroke-width="0.6486501480951119" fill="none" opacity="0.52" filter="url(#bf27)"/><path d="M 46.7433571764559,128.45001429886906 C -109.5320589838957,-3.9821848863357445 -190.0334964253625,-60.84982639151349 -254.51322928890932,-102.34678848380554" stroke="rgb(240,235,199)" stroke-width="2.309504262399787" fill="none" opacity="0.41" filter="url(#bf28)"/><path d="M 162.8745023297597,14.953393414361926 C 188.78450101790804,140.876278676551 224.64488313860784,170.83145767082897 174.27423155291763,173.83606702265752" stroke="rgb(230,225,191)" stroke-width="2.3901247744923237" fill="none" opacity="0.69" filter="url(#bf29)"/><path d="M 417.16919629616314,317.43721936982183 C 351.1857728062023,455.9010731797389 342.42968725113315,471.1800940203284 291.8546256065747,506.8418328567532" stroke="rgb(254,248,210)" stroke-width="1.298361817633122" fill="none" opacity="0.87"/><path d="M 603.7813647795701,511.55104091121757 C 759.661324880326,480.18510143192543 761.33775757884,486.4585873154442 807.7419736198135,423.6293809799622" stroke="rgb(240,235,199)" stroke-width="1.0151247412384692" fill="none" opacity="0.71" filter="url(#bf31)"/><path d="M 40.97596379724564,337.0970459527143 C 68.48658981907647,261.67200570092064 93.22605461366038,236.10470964485103 38.52244164841977,198.69218464514233" stroke="rgb(225,220,187)" stroke-width="2.1595378136051293" fill="none" opacity="0.62" filter="url(#bf32)"/><path d="M 186.21414285880746,235.69081968780665 C 79.625991845096,338.285590693049 115.44711799986544,324.1199830473124 73.66602957248688,381.0737681547107" stroke="rgb(241,236,200)" stroke-width="2.1856646719621495" fill="none" opacity="0.65" filter="url(#bf33)"/><path d="M 725.4502006137045,270.92952670063823 C 762.9326851043152,377.58847567252815 844.2349725498934,402.2496559831052 904.1338068544337,416.24912791510724" stroke="rgb(238,233,198)" stroke-width="1.2625180143177204" fill="none" opacity="0.44" filter="url(#bf34)"/><path d="M 479.99698246858316,43.113016129791504 C 486.778491966179,6.171373912548006 530.7394083553663,-72.77715259431716 470.27701420018275,-109.55701310005679" stroke="rgb(222,217,184)" stroke-width="2.255386072871988" fill="none" opacity="0.94" filter="url(#bf35)"/><path d="M 189.82936853863066,593.3883779005555 C 56.59761016780976,710.892878125087 42.247979082676466,685.0211708707502 111.3422937719588,670.6065130618299" stroke="rgb(222,217,184)" stroke-width="1.5506610204591198" fill="none" opacity="0.50" filter="url(#bf36)"/><path d="M 317.63052680616966,112.74550834305046 C 184.16005625011167,120.6261115255802 119.13259047762949,48.932262355174316 125.57493378913023,74.38042100163784" stroke="rgb(238,233,198)" stroke-width="1.572963518194547" fill="none" opacity="0.76" filter="url(#bf37)"/><path d="M 545.418049408363,389.9339229610632 C 555.4012718510421,401.28380356910384 477.0384892857692,413.77298607262674 397.2862823575997,467.80362712671376" stroke="rgb(225,220,187)" stroke-width="0.6776461242478035" fill="none" opacity="0.48" filter="url(#bf38)"/><path d="M 708.7465203090687,88.04448164300993 C 594.6343893973972,-39.8772323628873 536.8180872173252,19.14063851651008 601.7447604501649,17.129778077214723" stroke="rgb(238,233,198)" stroke-width="1.75142602653832" fill="none" opacity="0.68" filter="url(#bf39)"/><path d="M 388.50936891831225,301.4128416991298 C 396.5726976671431,340.523556938424 439.75311453043105,403.957641939578 454.2361415308187,467.83859079043395" stroke="rgb(235,230,195)" stroke-width="0.8560589273634832" fill="none" opacity="0.83"/><path d="M 765.0339934334625,473.87828546428636 C 751.0625440941658,373.70967416527265 703.0245677726361,461.9119218721039 767.0417477252795,417.23639544797834" stroke="rgb(244,239,203)" stroke-width="1.2773246288777955" fill="none" opacity="0.74" filter="url(#bf41)"/><path d="M 144.71127757642535,367.5033873094435 C 205.68735859371372,332.86499624598946 152.24412185281835,322.35317417678743 129.76477931031695,326.31663401366495" stroke="rgb(222,217,184)" stroke-width="2.3290464900504957" fill="none" opacity="0.58" filter="url(#bf42)"/><path d="M 422.6483419250144,195.02906346278905 C 284.42043954455585,323.9918508039773 260.9934515468922,350.3362233992266 185.85105172754993,282.2611726834839" stroke="rgb(245,240,204)" stroke-width="0.7534359203182248" fill="none" opacity="0.88"/><path d="M 10.999710195756052,526.1319351571728 C 80.71320578254017,409.99974498445226 161.73280468881785,332.76889355338426 134.95609654915825,385.05618794437396" stroke="rgb(233,228,193)" stroke-width="1.0500790230114945" fill="none" opacity="0.62" filter="url(#bf44)"/><path d="M 698.784539377084,238.73098393432883 C 662.925415339123,168.74327640278352 652.0692464360764,93.62114373876466 591.6850415175577,25.768558091804152" stroke="rgb(242,237,201)" stroke-width="2.195984383022369" fill="none" opacity="0.59" filter="url(#bf45)"/><path d="M 12.27093916022568,208.68326183590398 C 56.19588581597782,316.94749919493916 25.806518146910093,379.4692490278612 8.125187737077795,335.18836139514406" stroke="rgb(253,247,209)" stroke-width="2.0190099500542344" fill="none" opacity="0.45" filter="url(#bf46)"/><path d="M 146.96635638447333,53.11081759573426 C 293.07232805960666,133.84569871528186 337.3705286490076,103.1537960579368 333.219702214119,163.14204514184496" stroke="rgb(228,223,189)" stroke-width="0.7933229259453582" fill="none" opacity="0.46" filter="url(#bf47)"/><path d="M 742.7899947651895,64.819068835277 C 664.5547676096612,-45.10847601766727 571.0215471572155,-63.68044526529047 493.65324545527983,-120.15575390449158" stroke="rgb(236,231,196)" stroke-width="1.7273792095573297" fill="none" opacity="0.42" filter="url(#bf48)"/><path d="M 77.28395063313656,25.095758806310187 C 64.3255093053449,60.465858070783725 92.07055798455258,70.47064618313925 119.55049300348037,24.562826458541167" stroke="rgb(223,218,185)" stroke-width="1.5845525151475157" fill="none" opacity="0.67" filter="url(#bf49)"/><path d="M 137.66960157372523,299.1040763482488 C 9.576449064770713,312.25668981564013 49.28774234579381,245.16800923620394 -6.523354070643258,188.93657228239135" stroke="rgb(225,220,187)" stroke-width="2.157978472258037" fill="none" opacity="0.52" filter="url(#bf50)"/><path d="M 78.67750312107091,133.19177016164758 C -31.007571097943583,235.54397695734224 50.34379640885163,228.5956719602109 -15.28759870067006,223.56114717140372" stroke="rgb(236,231,196)" stroke-width="0.7009614208187486" fill="none" opacity="0.90" filter="url(#bf51)"/><path d="M 371.23128692110186,540.4361193777731 C 363.168326063751,416.1412292829118 440.21412642418,389.25001988574877 411.70942247532366,327.3505089934224" stroke="rgb(252,246,209)" stroke-width="1.3640697112154156" fill="none" opacity="0.77" filter="url(#bf52)"/><path d="M 46.288509186706506,404.04966173609864 C 183.8454492323217,382.90495014738553 205.59102610517584,439.51937612931573 183.93614217646245,461.3243667458991" stroke="rgb(227,222,188)" stroke-width="1.1918105789685796" fill="none" opacity="0.52" filter="url(#bf53)"/><path d="M 524.5999463804765,131.22521897080333 C 435.1564334574505,83.28464236591572 381.61432664674066,94.86516189320355 344.7724606417614,38.96431357182337" stroke="rgb(250,245,208)" stroke-width="1.3720870063252733" fill="none" opacity="0.66" filter="url(#bf54)"/>
<rect width="100%" height="100%" fill="rgba(90,80,65,0.04)" filter="url(#grain)"/><rect width="100%" height="100%" fill="url(#vign)"/>
</svg>