<svg xmlns="http://www.w3.org/2000/svg" viewBox="0 0 800 600" width="800" height="600"><defs><radialGradient id="bg" cx="48%" cy="42%" r="68%"><stop offset="0%" stop-color="#3C3025"/><stop offset="55%" stop-color="#26201A"/><stop offset="100%" stop-color="#141008"/></radialGradient><linearGradient id="fab1" x1="0%" y1="0%" x2="0%" y2="100%"><stop offset="0%" stop-color="#F0EBE2"/><stop offset="100%" stop-color="#E0D8CC"/></linearGradient><linearGradient id="fab2" x1="0%" y1="0%" x2="0%" y2="100%"><stop offset="0%" stop-color="#E5DFD5"/><stop offset="100%" stop-color="#D5CEC2"/></linearGradient><linearGradient id="fold" x1="0%" y1="0%" x2="0%" y2="100%"><stop offset="0%" stop-color="#B8B0A5"/><stop offset="100%" stop-color="#A8A095"/></linearGradient><filter id="blur5"><feGaussianBlur stdDeviation="5"/></filter><pattern id="weave" width="5" height="5" patternUnits="userSpaceOnUse"><rect width="5" height="5" fill="rgba(255,255,255,0)"/><line x1="0" y1="2.5" x2="5" y2="2.5" stroke="rgba(0,0,0,0.06)" stroke-width="0.9"/><line x1="2.5" y1="0" x2="2.5" y2="5" stroke="rgba(255,255,255,0.08)" stroke-width="0.9"/></pattern><filter id="grain" x="-5%" y="-5%" width="110%" height="110%"><feTurbulence type="fractalNoise" baseFrequency="0.72" numOctaves="4" stitchTiles="stitch" result="n"/><feColorMatrix in="n" type="saturate" values="0" result="g"/><feBlend in="SourceGraphic" in2="g" mode="soft-light" result="b"/><feComposite in="b" in2="SourceGraphic" operator="in"/></filter><radialGradient id="vign" cx="50%" cy="50%" r="70%"><stop offset="0%" stop-color="rgba(0,0,0,0)"/><stop offset="68%" stop-color="rgba(0,0,0,0)"/><stop offset="100%" stop-color="rgba(0,0,0,0.5)"/></radialGradient></defs><rect width="800" height="600" fill="url(#bg)"/><ellipse cx="120" cy="280" rx="200" ry="180" fill="rgba(200,158,90,0.1)"/><rect x="80" y="100" width="640" height="280" rx="2" fill="url(#fab1)"/><rect x="80" y="100" width="640" height="280" rx="2" fill="url(#weave)" opacity="0.4"/><rect x="80" y="100" width="640" height="6" fill="rgba(255,255,255,0.35)"/><rect x="80" y="372" width="640" height="18" rx="1" fill="url(#fold)"/><rect x="80" y="390" width="640" height="80" fill="url(#fab2)" opacity="0.7"/><rect x="80" y="390" width="640" height="80" fill="url(#weave)" opacity="0.3"/><rect x="80" y="388" width="640" height="25" fill="rgba(0,0,0,0.28)" filter="url(#blur5)" opacity="0.7"/><path d="M 120,110 C 200,105 320,108 440,112 C 380,118 260,116 140,122 Z" fill="rgba(255,255,255,0.18)"/><line x1="160" y1="100" x2="160" y2="372" stroke="rgba(200,192,180,0.2)" stroke-width="0.8"/><line x1="240" y1="100" x2="240" y2="372" stroke="rgba(200,192,180,0.2)" stroke-width="0.8"/><line x1="320" y1="100" x2="320" y2="372" stroke="rgba(200,192,180,0.15)" stroke-width="0.8"/><line x1="400" y1="100" x2="400" y2="372" stroke="rgba(200,192,180,0.2)" stroke-width="0.8"/><line x1="480" y1="100" x2="480" y2="372" stroke="rgba(200,192,180,0.15)" stroke-width="0.8"/><line x1="560" y1="100" x2="560" y2="372" stroke="rgba(200,192,180,0.2)" stroke-width="0.8"/><line x1="640" y1="100" x2="640" y2="372" stroke="rgba(200,192,180,0.15)" stroke-width="0.8"/><rect width="100%" height="100%" fill="rgba(90,80,65,0.04)" filter="url(#grain)"/><rect width="100%" height="100%" fill="url(#vign)"/></svg>