<svg xmlns="http://www.w3.org/2000/svg" viewBox="0 0 800 600" width="800" height="600"><defs><radialGradient id="bg" cx="50%" cy="50%" r="65%"><stop offset="0%" stop-color="#362C1A"/><stop offset="100%" stop-color="#181008"/></radialGradient><radialGradient id="hub" cx="50%" cy="50%" r="50%"><stop offset="0%" stop-color="#9A8060"/><stop offset="100%" stop-color="#6A5038"/></radialGradient><filter id="motionblur"><feGaussianBlur stdDeviation="2.5 0.5"/></filter><filter id="grain" x="-5%" y="-5%" width="110%" height="110%"><feTurbulence type="fractalNoise" baseFrequency="0.72" numOctaves="4" stitchTiles="stitch" result="n"/><feColorMatrix in="n" type="saturate" values="0" result="g"/><feBlend in="SourceGraphic" in2="g" mode="soft-light" result="b"/><feComposite in="b" in2="SourceGraphic" operator="in"/></filter><radialGradient id="vign" cx="50%" cy="50%" r="70%"><stop offset="0%" stop-color="rgba(0,0,0,0)"/><stop offset="68%" stop-color="rgba(0,0,0,0)"/><stop offset="100%" stop-color="rgba(0,0,0,0.5)"/></radialGradient></defs><rect width="800" height="600" fill="url(#bg)"/><circle cx="400" cy="300" r="170" stroke="#7A6848" stroke-width="12" fill="none" opacity="0.85"/><circle cx="400" cy="300" r="170" stroke="rgba(200,165,110,0.2)" stroke-width="3" fill="none" filter="url(#motionblur)"/><g filter="url(#motionblur)"><line x1="400" y1="300" x2="565.0" y2="300.0" stroke="rgba(180,155,110,0.5)" stroke-width="1.2"/><line x1="400" y1="300" x2="555.0" y2="356.4" stroke="rgba(180,155,110,0.5)" stroke-width="1.2"/><line x1="400" y1="300" x2="526.4" y2="406.1" stroke="rgba(180,155,110,0.5)" stroke-width="1.2"/><line x1="400" y1="300" x2="482.5" y2="442.9" stroke="rgba(180,155,110,0.5)" stroke-width="1.2"/><line x1="400" y1="300" x2="428.7" y2="462.5" stroke="rgba(180,155,110,0.5)" stroke-width="1.2"/><line x1="400" y1="300" x2="371.3" y2="462.5" stroke="rgba(180,155,110,0.5)" stroke-width="1.2"/><line x1="400" y1="300" x2="317.5" y2="442.9" stroke="rgba(180,155,110,0.5)" stroke-width="1.2"/><line x1="400" y1="300" x2="273.6" y2="406.1" stroke="rgba(180,155,110,0.5)" stroke-width="1.2"/><line x1="400" y1="300" x2="245.0" y2="356.4" stroke="rgba(180,155,110,0.5)" stroke-width="1.2"/><line x1="400" y1="300" x2="235.0" y2="300.0" stroke="rgba(180,155,110,0.5)" stroke-width="1.2"/><line x1="400" y1="300" x2="245.0" y2="243.6" stroke="rgba(180,155,110,0.5)" stroke-width="1.2"/><line x1="400" y1="300" x2="273.6" y2="193.9" stroke="rgba(180,155,110,0.5)" stroke-width="1.2"/><line x1="400" y1="300" x2="317.5" y2="157.1" stroke="rgba(180,155,110,0.5)" stroke-width="1.2"/><line x1="400" y1="300" x2="371.3" y2="137.5" stroke="rgba(180,155,110,0.5)" stroke-width="1.2"/><line x1="400" y1="300" x2="428.7" y2="137.5" stroke="rgba(180,155,110,0.5)" stroke-width="1.2"/><line x1="400" y1="300" x2="482.5" y2="157.1" stroke="rgba(180,155,110,0.5)" stroke-width="1.2"/><line x1="400" y1="300" x2="526.4" y2="193.9" stroke="rgba(180,155,110,0.5)" stroke-width="1.2"/><line x1="400" y1="300" x2="555.0" y2="243.6" stroke="rgba(180,155,110,0.5)" stroke-width="1.2"/></g><circle cx="400" cy="300" r="22" fill="url(#hub)"/><circle cx="400" cy="300" r="10" fill="#C0A070" opacity="0.7"/><line x1="412.0" y1="300.0" x2="413.4" y2="300.7" stroke="rgba(240,232,215,0.30)" stroke-width="1.4"/><line x1="413.4" y1="300.7" x2="414.7" y2="301.5" stroke="rgba(240,232,215,0.30)" stroke-width="1.4"/><line x1="414.7" y1="301.5" x2="416.0" y2="302.4" stroke="rgba(240,232,215,0.31)" stroke-width="1.4"/><line x1="416.0" y1="302.4" x2="417.2" y2="303.5" stroke="rgba(240,232,215,0.31)" stroke-width="1.4"/><line x1="417.2" y1="303.5" x2="418.4" y2="304.7" stroke="rgba(240,232,215,0.32)" stroke-width="1.4"/><line x1="418.4" y1="304.7" x2="419.5" y2="306.0" stroke="rgba(240,232,215,0.32)" stroke-width="1.4"/><line x1="419.5" y1="306.0" x2="420.5" y2="307.5" stroke="rgba(240,232,215,0.32)" stroke-width="1.4"/><line x1="420.5" y1="307.5" x2="421.4" y2="309.0" stroke="rgba(240,232,215,0.33)" stroke-width="1.4"/><line x1="421.4" y1="309.0" x2="422.2" y2="310.7" stroke="rgba(240,232,215,0.33)" stroke-width="1.4"/><line x1="422.2" y1="310.7" x2="422.8" y2="312.5" stroke="rgba(240,232,215,0.34)" stroke-width="1.4"/><line x1="422.8" y1="312.5" x2="423.4" y2="314.3" stroke="rgba(240,232,215,0.34)" stroke-width="1.4"/><line x1="423.4" y1="314.3" x2="423.8" y2="316.3" stroke="rgba(240,232,215,0.34)" stroke-width="1.5"/><line x1="423.8" y1="316.3" x2="424.0" y2="318.3" stroke="rgba(240,232,215,0.35)" stroke-width="1.5"/><line x1="424.0" y1="318.3" x2="424.2" y2="320.4" stroke="rgba(240,232,215,0.35)" stroke-width="1.5"/><line x1="424.2" y1="320.4" x2="424.1" y2="322.5" stroke="rgba(240,232,215,0.36)" stroke-width="1.5"/><line x1="424.1" y1="322.5" x2="424.0" y2="324.7" stroke="rgba(240,232,215,0.36)" stroke-width="1.5"/><line x1="424.0" y1="324.7" x2="423.6" y2="326.9" stroke="rgba(240,232,215,0.36)" stroke-width="1.5"/><line x1="423.6" y1="326.9" x2="423.1" y2="329.1" stroke="rgba(240,232,215,0.37)" stroke-width="1.5"/><line x1="423.1" y1="329.1" x2="422.5" y2="331.4" stroke="rgba(240,232,215,0.37)" stroke-width="1.5"/><line x1="422.5" y1="331.4" x2="421.6" y2="333.7" stroke="rgba(240,232,215,0.38)" stroke-width="1.5"/><line x1="421.6" y1="333.7" x2="420.6" y2="335.9" stroke="rgba(240,232,215,0.38)" stroke-width="1.5"/><line x1="420.6" y1="335.9" x2="419.4" y2="338.1" stroke="rgba(240,232,215,0.38)" stroke-width="1.5"/><line x1="419.4" y1="338.1" x2="418.1" y2="340.3" stroke="rgba(240,232,215,0.39)" stroke-width="1.5"/><line x1="418.1" y1="340.3" x2="416.5" y2="342.5" stroke="rgba(240,232,215,0.39)" stroke-width="1.5"/><line x1="416.5" y1="342.5" x2="414.8" y2="344.6" stroke="rgba(240,232,215,0.40)" stroke-width="1.5"/><line x1="414.8" y1="344.6" x2="412.9" y2="346.6" stroke="rgba(240,232,215,0.40)" stroke-width="1.5"/><line x1="412.9" y1="346.6" x2="410.9" y2="348.6" stroke="rgba(240,232,215,0.40)" stroke-width="1.5"/><line x1="410.9" y1="348.6" x2="408.7" y2="350.5" stroke="rgba(240,232,215,0.41)" stroke-width="1.5"/><line x1="408.7" y1="350.5" x2="406.3" y2="352.2" stroke="rgba(240,232,215,0.41)" stroke-width="1.5"/><line x1="406.3" y1="352.2" x2="403.8" y2="353.9" stroke="rgba(240,232,215,0.42)" stroke-width="1.5"/><line x1="403.8" y1="353.9" x2="401.2" y2="355.4" stroke="rgba(240,232,215,0.42)" stroke-width="1.6"/><line x1="401.2" y1="355.4" x2="398.3" y2="356.8" stroke="rgba(240,232,215,0.42)" stroke-width="1.6"/><line x1="398.3" y1="356.8" x2="395.4" y2="358.0" stroke="rgba(240,232,215,0.43)" stroke-width="1.6"/><line x1="395.4" y1="358.0" x2="392.3" y2="359.1" stroke="rgba(240,232,215,0.43)" stroke-width="1.6"/><line x1="392.3" y1="359.1" x2="389.1" y2="360.0" stroke="rgba(240,232,215,0.44)" stroke-width="1.6"/><line x1="389.1" y1="360.0" x2="385.8" y2="360.8" stroke="rgba(240,232,215,0.44)" stroke-width="1.6"/><line x1="385.8" y1="360.8" x2="382.4" y2="361.3" stroke="rgba(240,232,215,0.44)" stroke-width="1.6"/><line x1="382.4" y1="361.3" x2="378.9" y2="361.7" stroke="rgba(240,232,215,0.45)" stroke-width="1.6"/><line x1="378.9" y1="361.7" x2="375.3" y2="361.9" stroke="rgba(240,232,215,0.45)" stroke-width="1.6"/><line x1="375.3" y1="361.9" x2="371.7" y2="361.8" stroke="rgba(240,232,215,0.46)" stroke-width="1.6"/><line x1="371.7" y1="361.8" x2="368.0" y2="361.6" stroke="rgba(240,232,215,0.46)" stroke-width="1.6"/><line x1="368.0" y1="361.6" x2="364.3" y2="361.1" stroke="rgba(240,232,215,0.46)" stroke-width="1.6"/><line x1="364.3" y1="361.1" x2="360.5" y2="360.4" stroke="rgba(240,232,215,0.47)" stroke-width="1.6"/><line x1="360.5" y1="360.4" x2="356.7" y2="359.5" stroke="rgba(240,232,215,0.47)" stroke-width="1.6"/><line x1="356.7" y1="359.5" x2="352.9" y2="358.4" stroke="rgba(240,232,215,0.48)" stroke-width="1.6"/><line x1="352.9" y1="358.4" x2="349.1" y2="357.0" stroke="rgba(240,232,215,0.48)" stroke-width="1.6"/><line x1="349.1" y1="357.0" x2="345.3" y2="355.4" stroke="rgba(240,232,215,0.48)" stroke-width="1.6"/><line x1="345.3" y1="355.4" x2="341.6" y2="353.5" stroke="rgba(240,232,215,0.49)" stroke-width="1.6"/><line x1="341.6" y1="353.5" x2="337.9" y2="351.4" stroke="rgba(240,232,215,0.49)" stroke-width="1.6"/><line x1="337.9" y1="351.4" x2="334.3" y2="349.1" stroke="rgba(240,232,215,0.50)" stroke-width="1.6"/><line x1="334.3" y1="349.1" x2="330.8" y2="346.5" stroke="rgba(240,232,215,0.50)" stroke-width="1.6"/><line x1="330.8" y1="346.5" x2="327.3" y2="343.7" stroke="rgba(240,232,215,0.50)" stroke-width="1.7"/><line x1="327.3" y1="343.7" x2="324.0" y2="340.7" stroke="rgba(240,232,215,0.51)" stroke-width="1.7"/><line x1="324.0" y1="340.7" x2="320.8" y2="337.4" stroke="rgba(240,232,215,0.51)" stroke-width="1.7"/><line x1="320.8" y1="337.4" x2="317.7" y2="334.0" stroke="rgba(240,232,215,0.52)" stroke-width="1.7"/><line x1="317.7" y1="334.0" x2="314.8" y2="330.3" stroke="rgba(240,232,215,0.52)" stroke-width="1.7"/><line x1="314.8" y1="330.3" x2="312.1" y2="326.4" stroke="rgba(240,232,215,0.52)" stroke-width="1.7"/><line x1="312.1" y1="326.4" x2="309.5" y2="322.3" stroke="rgba(240,232,215,0.53)" stroke-width="1.7"/><line x1="309.5" y1="322.3" x2="307.1" y2="318.0" stroke="rgba(240,232,215,0.53)" stroke-width="1.7"/><line x1="307.1" y1="318.0" x2="305.0" y2="313.5" stroke="rgba(240,232,215,0.54)" stroke-width="1.7"/><line x1="305.0" y1="313.5" x2="303.0" y2="308.9" stroke="rgba(240,232,215,0.54)" stroke-width="1.7"/><line x1="303.0" y1="308.9" x2="301.3" y2="304.1" stroke="rgba(240,232,215,0.54)" stroke-width="1.7"/><line x1="301.3" y1="304.1" x2="299.8" y2="299.2" stroke="rgba(240,232,215,0.55)" stroke-width="1.7"/><line x1="299.8" y1="299.2" x2="298.6" y2="294.1" stroke="rgba(240,232,215,0.55)" stroke-width="1.7"/><line x1="298.6" y1="294.1" x2="297.6" y2="288.9" stroke="rgba(240,232,215,0.56)" stroke-width="1.7"/><line x1="297.6" y1="288.9" x2="296.9" y2="283.5" stroke="rgba(240,232,215,0.56)" stroke-width="1.7"/><line x1="296.9" y1="283.5" x2="296.5" y2="278.1" stroke="rgba(240,232,215,0.56)" stroke-width="1.7"/><line x1="296.5" y1="278.1" x2="296.4" y2="272.6" stroke="rgba(240,232,215,0.57)" stroke-width="1.7"/><line x1="296.4" y1="272.6" x2="296.5" y2="267.0" stroke="rgba(240,232,215,0.57)" stroke-width="1.7"/><line x1="296.5" y1="267.0" x2="297.0" y2="261.4" stroke="rgba(240,232,215,0.58)" stroke-width="1.7"/><line x1="297.0" y1="261.4" x2="297.8" y2="255.8" stroke="rgba(240,232,215,0.58)" stroke-width="1.7"/><line x1="297.8" y1="255.8" x2="298.8" y2="250.1" stroke="rgba(240,232,215,0.58)" stroke-width="1.8"/><line x1="298.8" y1="250.1" x2="300.2" y2="244.4" stroke="rgba(240,232,215,0.59)" stroke-width="1.8"/><line x1="300.2" y1="244.4" x2="302.0" y2="238.8" stroke="rgba(240,232,215,0.59)" stroke-width="1.8"/><line x1="302.0" y1="238.8" x2="304.0" y2="233.1" stroke="rgba(240,232,215,0.60)" stroke-width="1.8"/><line x1="304.0" y1="233.1" x2="306.3" y2="227.6" stroke="rgba(240,232,215,0.60)" stroke-width="1.8"/><line x1="306.3" y1="227.6" x2="309.0" y2="222.1" stroke="rgba(240,232,215,0.60)" stroke-width="1.8"/><line x1="309.0" y1="222.1" x2="312.0" y2="216.6" stroke="rgba(240,232,215,0.61)" stroke-width="1.8"/><line x1="312.0" y1="216.6" x2="315.3" y2="211.3" stroke="rgba(240,232,215,0.61)" stroke-width="1.8"/><line x1="315.3" y1="211.3" x2="318.9" y2="206.2" stroke="rgba(240,232,215,0.62)" stroke-width="1.8"/><line x1="318.9" y1="206.2" x2="322.9" y2="201.1" stroke="rgba(240,232,215,0.62)" stroke-width="1.8"/><line x1="322.9" y1="201.1" x2="327.1" y2="196.2" stroke="rgba(240,232,215,0.62)" stroke-width="1.8"/><line x1="327.1" y1="196.2" x2="331.6" y2="191.5" stroke="rgba(240,232,215,0.63)" stroke-width="1.8"/><line x1="331.6" y1="191.5" x2="336.5" y2="187.0" stroke="rgba(240,232,215,0.63)" stroke-width="1.8"/><line x1="336.5" y1="187.0" x2="341.6" y2="182.8" stroke="rgba(240,232,215,0.64)" stroke-width="1.8"/><line x1="341.6" y1="182.8" x2="346.9" y2="178.7" stroke="rgba(240,232,215,0.64)" stroke-width="1.8"/><line x1="346.9" y1="178.7" x2="352.6" y2="174.9" stroke="rgba(240,232,215,0.64)" stroke-width="1.8"/><line x1="352.6" y1="174.9" x2="358.4" y2="171.3" stroke="rgba(240,232,215,0.65)" stroke-width="1.8"/><line x1="358.4" y1="171.3" x2="364.6" y2="168.1" stroke="rgba(240,232,215,0.65)" stroke-width="1.8"/><line x1="364.6" y1="168.1" x2="370.9" y2="165.1" stroke="rgba(240,232,215,0.66)" stroke-width="1.8"/><line x1="370.9" y1="165.1" x2="377.5" y2="162.4" stroke="rgba(240,232,215,0.66)" stroke-width="1.8"/><line x1="377.5" y1="162.4" x2="384.2" y2="160.1" stroke="rgba(240,232,215,0.66)" stroke-width="1.9"/><line x1="384.2" y1="160.1" x2="391.1" y2="158.1" stroke="rgba(240,232,215,0.67)" stroke-width="1.9"/><line x1="391.1" y1="158.1" x2="398.2" y2="156.4" stroke="rgba(240,232,215,0.67)" stroke-width="1.9"/><line x1="398.2" y1="156.4" x2="405.5" y2="155.1" stroke="rgba(240,232,215,0.68)" stroke-width="1.9"/><line x1="405.5" y1="155.1" x2="412.8" y2="154.2" stroke="rgba(240,232,215,0.68)" stroke-width="1.9"/><line x1="412.8" y1="154.2" x2="420.3" y2="153.6" stroke="rgba(240,232,215,0.68)" stroke-width="1.9"/><line x1="420.3" y1="153.6" x2="427.8" y2="153.4" stroke="rgba(240,232,215,0.69)" stroke-width="1.9"/><line x1="427.8" y1="153.4" x2="435.4" y2="153.6" stroke="rgba(240,232,215,0.69)" stroke-width="1.9"/><line x1="435.4" y1="153.6" x2="443.1" y2="154.2" stroke="rgba(240,232,215,0.70)" stroke-width="1.9"/><line x1="443.1" y1="154.2" x2="450.8" y2="155.3" stroke="rgba(240,232,215,0.70)" stroke-width="1.9"/><line x1="450.8" y1="155.3" x2="458.5" y2="156.7" stroke="rgba(240,232,215,0.70)" stroke-width="1.9"/><line x1="458.5" y1="156.7" x2="466.2" y2="158.5" stroke="rgba(240,232,215,0.71)" stroke-width="1.9"/><line x1="466.2" y1="158.5" x2="473.8" y2="160.8" stroke="rgba(240,232,215,0.71)" stroke-width="1.9"/><line x1="473.8" y1="160.8" x2="481.4" y2="163.4" stroke="rgba(240,232,215,0.72)" stroke-width="1.9"/><line x1="481.4" y1="163.4" x2="488.9" y2="166.5" stroke="rgba(240,232,215,0.72)" stroke-width="1.9"/><line x1="488.9" y1="166.5" x2="496.3" y2="170.0" stroke="rgba(240,232,215,0.72)" stroke-width="1.9"/><line x1="496.3" y1="170.0" x2="503.6" y2="173.9" stroke="rgba(240,232,215,0.73)" stroke-width="1.9"/><line x1="503.6" y1="173.9" x2="510.7" y2="178.2" stroke="rgba(240,232,215,0.73)" stroke-width="1.9"/><line x1="510.7" y1="178.2" x2="517.6" y2="182.9" stroke="rgba(240,232,215,0.74)" stroke-width="1.9"/><line x1="517.6" y1="182.9" x2="524.4" y2="188.0" stroke="rgba(240,232,215,0.74)" stroke-width="1.9"/><line x1="524.4" y1="188.0" x2="530.9" y2="193.4" stroke="rgba(240,232,215,0.74)" stroke-width="2.0"/><line x1="530.9" y1="193.4" x2="537.2" y2="199.3" stroke="rgba(240,232,215,0.75)" stroke-width="2.0"/><line x1="537.2" y1="199.3" x2="543.2" y2="205.5" stroke="rgba(240,232,215,0.75)" stroke-width="2.0"/><line x1="543.2" y1="205.5" x2="549.0" y2="212.1" stroke="rgba(240,232,215,0.76)" stroke-width="2.0"/><line x1="549.0" y1="212.1" x2="554.4" y2="219.0" stroke="rgba(240,232,215,0.76)" stroke-width="2.0"/><line x1="554.4" y1="219.0" x2="559.6" y2="226.2" stroke="rgba(240,232,215,0.76)" stroke-width="2.0"/><line x1="559.6" y1="226.2" x2="564.3" y2="233.7" stroke="rgba(240,232,215,0.77)" stroke-width="2.0"/><line x1="564.3" y1="233.7" x2="568.8" y2="241.6" stroke="rgba(240,232,215,0.77)" stroke-width="2.0"/><line x1="568.8" y1="241.6" x2="572.8" y2="249.7" stroke="rgba(240,232,215,0.78)" stroke-width="2.0"/><line x1="572.8" y1="249.7" x2="576.5" y2="258.1" stroke="rgba(240,232,215,0.78)" stroke-width="2.0"/><line x1="576.5" y1="258.1" x2="579.7" y2="266.7" stroke="rgba(240,232,215,0.78)" stroke-width="2.0"/><line x1="579.7" y1="266.7" x2="582.6" y2="275.5" stroke="rgba(240,232,215,0.79)" stroke-width="2.0"/><line x1="582.6" y1="275.5" x2="585.0" y2="284.6" stroke="rgba(240,232,215,0.79)" stroke-width="2.0"/><line x1="585.0" y1="284.6" x2="586.9" y2="293.8" stroke="rgba(240,232,215,0.80)" stroke-width="2.0"/><line x1="586.9" y1="293.8" x2="588.4" y2="303.2" stroke="rgba(240,232,215,0.80)" stroke-width="2.0"/><line x1="588.4" y1="303.2" x2="589.4" y2="312.7" stroke="rgba(240,232,215,0.80)" stroke-width="2.0"/><line x1="589.4" y1="312.7" x2="589.9" y2="322.3" stroke="rgba(240,232,215,0.81)" stroke-width="2.0"/><line x1="589.9" y1="322.3" x2="589.9" y2="332.0" stroke="rgba(240,232,215,0.81)" stroke-width="2.0"/><line x1="589.9" y1="332.0" x2="589.5" y2="341.7" stroke="rgba(240,232,215,0.82)" stroke-width="2.0"/><line x1="589.5" y1="341.7" x2="588.5" y2="351.5" stroke="rgba(240,232,215,0.82)" stroke-width="2.0"/><line x1="588.5" y1="351.5" x2="587.0" y2="361.3" stroke="rgba(240,232,215,0.82)" stroke-width="2.1"/><line x1="587.0" y1="361.3" x2="585.0" y2="371.1" stroke="rgba(240,232,215,0.83)" stroke-width="2.1"/><line x1="585.0" y1="371.1" x2="582.5" y2="380.8" stroke="rgba(240,232,215,0.83)" stroke-width="2.1"/><line x1="582.5" y1="380.8" x2="579.5" y2="390.5" stroke="rgba(240,232,215,0.84)" stroke-width="2.1"/><line x1="579.5" y1="390.5" x2="576.0" y2="400.0" stroke="rgba(240,232,215,0.84)" stroke-width="2.1"/><line x1="576.0" y1="400.0" x2="571.9" y2="409.4" stroke="rgba(240,232,215,0.84)" stroke-width="2.1"/><path d="M 400,300 C 450,285 510,262 560,240 C 620,214 680,200 740,195" stroke="rgba(240,232,215,0.75)" stroke-width="2.2" fill="none"/><circle cx="340" cy="250" r="55" fill="rgba(220,175,100,0.08)"/><rect width="100%" height="100%" fill="rgba(90,80,65,0.04)" filter="url(#grain)"/><rect width="100%" height="100%" fill="url(#vign)"/></svg>