<svg viewBox="0 0 800 600" xmlns="http://www.w3.org/2000/svg"><defs><filter id="g"><feTurbulence type="fractalNoise" baseFrequency="0.65" numOctaves="3" stitchTiles="stitch"/><feColorMatrix type="saturate" values="0"/></filter><linearGradient id="bg" x1="0" y1="0" x2="0.3" y2="1"><stop offset="0%" stop-color="#F8F3E8"/><stop offset="100%" stop-color="#EDE6D6"/></linearGradient><linearGradient id="fab" x1="0" y1="0" x2="1" y2="0.7"><stop offset="0%" stop-color="#FEFCF5"/><stop offset="60%" stop-color="#F5EEE4"/><stop offset="100%" stop-color="#EDE8DA"/></linearGradient><pattern id="wv" width="5" height="5" patternUnits="userSpaceOnUse"><line x1="0" y1="0" x2="5" y2="0" stroke="#D8D0C0" stroke-width="0.3" opacity="0.4"/><line x1="0" y1="0" x2="0" y2="5" stroke="#D8D0C0" stroke-width="0.3" opacity="0.4"/></pattern></defs><rect width="800" height="600" fill="url(#bg)"/><ellipse cx="400" cy="590" rx="320" ry="20" fill="#D4C8B0" opacity="0.2"/><path d="M80,20 C160,0 460,0 700,40 C740,200 720,400 710,580 C530,615 240,610 100,580 C75,400 70,200 80,20Z" fill="url(#fab)"/><path d="M80,20 C160,0 460,0 700,40 C740,200 720,400 710,580 C530,615 240,610 100,580 C75,400 70,200 80,20Z" fill="url(#wv)" opacity="0.6"/><path d="M190,60 C225,230 215,420 235,550" fill="none" stroke="#D4CAB8" stroke-width="0.8" opacity="0.45"/><path d="M480,15 C500,185 492,385 508,545" fill="none" stroke="#D4CAB8" stroke-width="0.7" opacity="0.38"/><path d="M82,22 C60,200 60,380 80,520" fill="none" stroke="#FEFEFC" stroke-width="3" opacity="0.6"/><rect width="800" height="600" filter="url(#g)" opacity="0.04"/></svg>