<svg viewBox="0 0 800 600" xmlns="http://www.w3.org/2000/svg"><defs><filter id="g"><feTurbulence type="fractalNoise" baseFrequency="0.65" numOctaves="3" stitchTiles="stitch"/><feColorMatrix type="saturate" values="0"/></filter><linearGradient id="bg" x1="0" y1="0" x2="0.3" y2="1"><stop offset="0%" stop-color="#1E1810"/><stop offset="100%" stop-color="#0E0C08"/></linearGradient></defs><rect width="800" height="600" fill="url(#bg)"/><line x1="80" y1="30" x2="80" y2="570" stroke="#C4A878" stroke-width="1.4" opacity="0.65"/><line x1="100" y1="30" x2="100" y2="570" stroke="#C4A878" stroke-width="1.4" opacity="0.55"/><line x1="120" y1="30" x2="120" y2="570" stroke="#C4A878" stroke-width="1.4" opacity="0.4"/><line x1="140" y1="30" x2="140" y2="570" stroke="#C4A878" stroke-width="1.4" opacity="0.65"/><line x1="160" y1="30" x2="160" y2="570" stroke="#C4A878" stroke-width="1.4" opacity="0.55"/><line x1="180" y1="30" x2="180" y2="570" stroke="#C4A878" stroke-width="1.4" opacity="0.4"/><line x1="200" y1="30" x2="200" y2="570" stroke="#C4A878" stroke-width="1.4" opacity="0.65"/><line x1="220" y1="30" x2="220" y2="570" stroke="#C4A878" stroke-width="1.4" opacity="0.55"/><line x1="240" y1="30" x2="240" y2="570" stroke="#C4A878" stroke-width="1.4" opacity="0.4"/><line x1="260" y1="30" x2="260" y2="570" stroke="#C4A878" stroke-width="1.4" opacity="0.65"/><line x1="280" y1="30" x2="280" y2="570" stroke="#C4A878" stroke-width="1.4" opacity="0.55"/><line x1="300" y1="30" x2="300" y2="570" stroke="#C4A878" stroke-width="1.4" opacity="0.4"/><line x1="320" y1="30" x2="320" y2="570" stroke="#C4A878" stroke-width="1.4" opacity="0.65"/><line x1="340" y1="30" x2="340" y2="570" stroke="#C4A878" stroke-width="1.4" opacity="0.55"/><line x1="360" y1="30" x2="360" y2="570" stroke="#C4A878" stroke-width="1.4" opacity="0.4"/><line x1="380" y1="30" x2="380" y2="570" stroke="#C4A878" stroke-width="1.4" opacity="0.65"/><line x1="400" y1="30" x2="400" y2="570" stroke="#C4A878" stroke-width="1.4" opacity="0.55"/><line x1="420" y1="30" x2="420" y2="570" stroke="#C4A878" stroke-width="1.4" opacity="0.4"/><line x1="440" y1="30" x2="440" y2="570" stroke="#C4A878" stroke-width="1.4" opacity="0.65"/><line x1="460" y1="30" x2="460" y2="570" stroke="#C4A878" stroke-width="1.4" opacity="0.55"/><line x1="480" y1="30" x2="480" y2="570" stroke="#C4A878" stroke-width="1.4" opacity="0.4"/><line x1="500" y1="30" x2="500" y2="570" stroke="#C4A878" stroke-width="1.4" opacity="0.65"/><line x1="520" y1="30" x2="520" y2="570" stroke="#C4A878" stroke-width="1.4" opacity="0.55"/><line x1="540" y1="30" x2="540" y2="570" stroke="#C4A878" stroke-width="1.4" opacity="0.4"/><line x1="560" y1="30" x2="560" y2="570" stroke="#C4A878" stroke-width="1.4" opacity="0.65"/><line x1="580" y1="30" x2="580" y2="570" stroke="#C4A878" stroke-width="1.4" opacity="0.55"/><line x1="600" y1="30" x2="600" y2="570" stroke="#C4A878" stroke-width="1.4" opacity="0.4"/><line x1="620" y1="30" x2="620" y2="570" stroke="#C4A878" stroke-width="1.4" opacity="0.65"/><line x1="640" y1="30" x2="640" y2="570" stroke="#C4A878" stroke-width="1.4" opacity="0.55"/><line x1="660" y1="30" x2="660" y2="570" stroke="#C4A878" stroke-width="1.4" opacity="0.4"/><line x1="680" y1="30" x2="680" y2="570" stroke="#C4A878" stroke-width="1.4" opacity="0.65"/><line x1="700" y1="30" x2="700" y2="570" stroke="#C4A878" stroke-width="1.4" opacity="0.55"/><line x1="80" y1="50" x2="720" y2="50" stroke="#E8D8B0" stroke-width="1.8" opacity="0.6"/><line x1="80" y1="74" x2="720" y2="74" stroke="#E8D8B0" stroke-width="1.8" opacity="0.35"/><line x1="80" y1="98" x2="720" y2="98" stroke="#E8D8B0" stroke-width="1.8" opacity="0.6"/><line x1="80" y1="122" x2="720" y2="122" stroke="#E8D8B0" stroke-width="1.8" opacity="0.35"/><line x1="80" y1="146" x2="720" y2="146" stroke="#E8D8B0" stroke-width="1.8" opacity="0.6"/><line x1="80" y1="170" x2="720" y2="170" stroke="#E8D8B0" stroke-width="1.8" opacity="0.35"/><line x1="80" y1="194" x2="720" y2="194" stroke="#E8D8B0" stroke-width="1.8" opacity="0.6"/><line x1="80" y1="218" x2="720" y2="218" stroke="#E8D8B0" stroke-width="1.8" opacity="0.35"/><line x1="80" y1="242" x2="720" y2="242" stroke="#E8D8B0" stroke-width="1.8" opacity="0.6"/><line x1="80" y1="266" x2="720" y2="266" stroke="#E8D8B0" stroke-width="1.8" opacity="0.35"/><line x1="80" y1="290" x2="720" y2="290" stroke="#E8D8B0" stroke-width="1.8" opacity="0.6"/><line x1="80" y1="314" x2="720" y2="314" stroke="#E8D8B0" stroke-width="1.8" opacity="0.35"/><line x1="80" y1="338" x2="720" y2="338" stroke="#E8D8B0" stroke-width="1.8" opacity="0.6"/><line x1="80" y1="362" x2="720" y2="362" stroke="#E8D8B0" stroke-width="1.8" opacity="0.35"/><line x1="80" y1="386" x2="720" y2="386" stroke="#E8D8B0" stroke-width="1.8" opacity="0.6"/><line x1="80" y1="410" x2="720" y2="410" stroke="#E8D8B0" stroke-width="1.8" opacity="0.35"/><line x1="80" y1="434" x2="720" y2="434" stroke="#E8D8B0" stroke-width="1.8" opacity="0.6"/><line x1="80" y1="458" x2="720" y2="458" stroke="#E8D8B0" stroke-width="1.8" opacity="0.35"/><line x1="80" y1="482" x2="720" y2="482" stroke="#E8D8B0" stroke-width="1.8" opacity="0.6"/><line x1="80" y1="506" x2="720" y2="506" stroke="#E8D8B0" stroke-width="1.8" opacity="0.35"/><line x1="80" y1="530" x2="720" y2="530" stroke="#E8D8B0" stroke-width="1.8" opacity="0.6"/><line x1="80" y1="554" x2="720" y2="554" stroke="#E8D8B0" stroke-width="1.8" opacity="0.35"/><rect x="60" y="25" width="10" height="550" fill="#8A6840" opacity="0.5"/><rect x="730" y="25" width="10" height="550" fill="#8A6840" opacity="0.5"/><rect width="800" height="600" filter="url(#g)" opacity="0.04"/></svg>