<svg viewBox="0 0 800 600" xmlns="http://www.w3.org/2000/svg"><defs><filter id="g"><feTurbulence type="fractalNoise" baseFrequency="0.65" numOctaves="3" stitchTiles="stitch"/><feColorMatrix type="saturate" values="0"/></filter><linearGradient id="sky" x1="0" y1="0" x2="0" y2="1"><stop offset="0%" stop-color="#D8D4CE"/><stop offset="40%" stop-color="#C0BAB2"/><stop offset="100%" stop-color="#8A847C"/></linearGradient></defs><rect width="800" height="600" fill="url(#sky)"/><path d="M0,390 L80,290 L160,350 L250,260 L340,320 L430,235 L520,295 L610,215 L700,275 L800,230 L800,600 L0,600Z" fill="#B8B2AA" opacity="0.55"/><path d="M0,430 L100,320 L210,385 L320,295 L430,360 L540,268 L650,330 L760,248 L800,280 L800,600 L0,600Z" fill="#7A7268" opacity="0.68"/><path d="M0,480 L130,370 L270,440 L400,345 L530,415 L660,328 L800,380 L800,600 L0,600Z" fill="#3A342C" opacity="0.82"/><rect x="0" y="330" width="800" height="60" fill="white" opacity="0.08"/><rect x="0" y="385" width="800" height="40" fill="white" opacity="0.12"/><rect x="0" y="420" width="800" height="25" fill="white" opacity="0.06"/><path d="M0,540 C200,525 400,535 800,520 L800,600 L0,600Z" fill="#1C1510" opacity="0.9"/><rect width="800" height="600" filter="url(#g)" opacity="0.04"/></svg>