<svg viewBox="0 0 800 600" xmlns="http://www.w3.org/2000/svg"><defs><filter id="g"><feTurbulence type="fractalNoise" baseFrequency="0.65" numOctaves="3" stitchTiles="stitch"/><feColorMatrix type="saturate" values="0"/></filter><linearGradient id="bg" x1="0" y1="0" x2="0.3" y2="1"><stop offset="0%" stop-color="#F0EBE3"/><stop offset="100%" stop-color="#DDD7C8"/></linearGradient></defs><rect width="800" height="600" fill="url(#bg)"/><path d="M400,300 Q469,321 568,300" fill="none" stroke="#FEFCF8" stroke-width="0.5" opacity="0.3"/><path d="M400,300 Q412,304 429,301" fill="none" stroke="#F8F4EE" stroke-width="0.7" opacity="0.37"/><path d="M400,300 Q472,331 581,314" fill="none" stroke="#F2EDE6" stroke-width="0.9" opacity="0.44"/><path d="M400,300 Q429,314 473,308" fill="none" stroke="#FAF6F0" stroke-width="1.1" opacity="0.51"/><path d="M400,300 Q446,326 521,318" fill="none" stroke="#ECE6DC" stroke-width="0.5" opacity="0.58"/><path d="M400,300 Q440,325 505,320" fill="none" stroke="#FEFCF8" stroke-width="0.7" opacity="0.65"/><path d="M400,300 Q440,328 508,325" fill="none" stroke="#F8F4EE" stroke-width="0.9" opacity="0.72"/><path d="M400,300 Q440,332 511,330" fill="none" stroke="#F2EDE6" stroke-width="1.1" opacity="0.79"/><path d="M400,300 Q426,323 474,324" fill="none" stroke="#FAF6F0" stroke-width="0.5" opacity="0.86"/><path d="M400,300 Q454,353 557,357" fill="none" stroke="#ECE6DC" stroke-width="0.7" opacity="0.3"/><path d="M400,300 Q408,309 424,310" fill="none" stroke="#FEFCF8" stroke-width="0.9" opacity="0.37"/><path d="M400,300 Q449,359 549,369" fill="none" stroke="#F8F4EE" stroke-width="1.1" opacity="0.44"/><path d="M400,300 Q426,335 483,343" fill="none" stroke="#F2EDE6" stroke-width="0.5" opacity="0.51"/><path d="M400,300 Q411,316 435,320" fill="none" stroke="#FAF6F0" stroke-width="0.7" opacity="0.58"/><path d="M400,300 Q452,387 575,412" fill="none" stroke="#ECE6DC" stroke-width="0.9" opacity="0.65"/><path d="M400,300 Q397,294 388,292" fill="none" stroke="#FEFCF8" stroke-width="1.1" opacity="0.72"/><path d="M400,300 Q433,372 525,399" fill="none" stroke="#F8F4EE" stroke-width="0.5" opacity="0.79"/><path d="M400,300 Q420,351 480,371" fill="none" stroke="#F2EDE6" stroke-width="0.7" opacity="0.86"/><path d="M400,300 Q402,306 409,309" fill="none" stroke="#FAF6F0" stroke-width="0.9" opacity="0.3"/><path d="M400,300 Q428,400 533,446" fill="none" stroke="#ECE6DC" stroke-width="1.1" opacity="0.37"/><path d="M400,300 Q401,302 403,303" fill="none" stroke="#FEFCF8" stroke-width="0.5" opacity="0.44"/><path d="M400,300 Q411,365 470,398" fill="none" stroke="#F8F4EE" stroke-width="0.7" opacity="0.51"/><path d="M400,300 Q407,360 458,392" fill="none" stroke="#F2EDE6" stroke-width="0.9" opacity="0.58"/><path d="M400,300 Q401,317 415,327" fill="none" stroke="#FAF6F0" stroke-width="1.1" opacity="0.65"/><path d="M400,300 Q401,380 458,426" fill="none" stroke="#ECE6DC" stroke-width="0.5" opacity="0.72"/><path d="M400,300 Q399,326 416,343" fill="none" stroke="#FEFCF8" stroke-width="0.7" opacity="0.79"/><path d="M400,300 Q395,357 428,394" fill="none" stroke="#F8F4EE" stroke-width="0.9" opacity="0.86"/><path d="M400,300 Q394,345 416,374" fill="none" stroke="#F2EDE6" stroke-width="1.1" opacity="0.3"/><path d="M400,300 Q390,349 412,384" fill="none" stroke="#FAF6F0" stroke-width="0.5" opacity="0.37"/><path d="M400,300 Q389,345 406,378" fill="none" stroke="#ECE6DC" stroke-width="0.7" opacity="0.44"/><path d="M400,300 Q388,339 400,368" fill="none" stroke="#FEFCF8" stroke-width="0.9" opacity="0.51"/><path d="M400,300 Q376,366 391,417" fill="none" stroke="#F8F4EE" stroke-width="1.1" opacity="0.58"/><path d="M400,300 Q395,312 397,321" fill="none" stroke="#F2EDE6" stroke-width="0.5" opacity="0.65"/><path d="M400,300 Q363,375 369,438" fill="none" stroke="#FAF6F0" stroke-width="0.7" opacity="0.72"/><path d="M400,300 Q385,326 385,349" fill="none" stroke="#ECE6DC" stroke-width="0.9" opacity="0.79"/><path d="M400,300 Q382,329 379,355" fill="none" stroke="#FEFCF8" stroke-width="1.1" opacity="0.86"/><path d="M400,300 Q347,376 333,446" fill="none" stroke="#F8F4EE" stroke-width="0.5" opacity="0.3"/><path d="M400,300 Q406,292 408,285" fill="none" stroke="#F2EDE6" stroke-width="0.7" opacity="0.37"/><path d="M400,300 Q338,370 311,443" fill="none" stroke="#FAF6F0" stroke-width="0.9" opacity="0.44"/><path d="M400,300 Q375,326 362,353" fill="none" stroke="#ECE6DC" stroke-width="1.1" opacity="0.51"/><path d="M400,300 Q385,314 376,330" fill="none" stroke="#FEFCF8" stroke-width="0.5" opacity="0.58"/><path d="M400,300 Q323,364 273,440" fill="none" stroke="#F8F4EE" stroke-width="0.7" opacity="0.65"/><path d="M400,300 Q404,297 407,294" fill="none" stroke="#F2EDE6" stroke-width="0.9" opacity="0.72"/><path d="M400,300 Q334,344 284,403" fill="none" stroke="#FAF6F0" stroke-width="1.1" opacity="0.79"/><path d="M400,300 Q359,324 326,359" fill="none" stroke="#ECE6DC" stroke-width="0.5" opacity="0.86"/><path d="M400,300 Q378,311 359,329" fill="none" stroke="#FEFCF8" stroke-width="0.7" opacity="0.3"/><path d="M400,300 Q328,333 262,389" fill="none" stroke="#F8F4EE" stroke-width="0.9" opacity="0.37"/><path d="M400,300 Q379,308 360,323" fill="none" stroke="#F2EDE6" stroke-width="1.1" opacity="0.44"/><path d="M400,300 Q341,320 282,361" fill="none" stroke="#FAF6F0" stroke-width="0.5" opacity="0.51"/><path d="M400,300 Q360,311 318,338" fill="none" stroke="#ECE6DC" stroke-width="0.7" opacity="0.58"/><path d="M400,300 Q349,312 293,344" fill="none" stroke="#FEFCF8" stroke-width="0.9" opacity="0.65"/><path d="M400,300 Q357,307 310,333" fill="none" stroke="#F8F4EE" stroke-width="1.1" opacity="0.72"/><path d="M400,300 Q354,306 300,332" fill="none" stroke="#F2EDE6" stroke-width="0.5" opacity="0.79"/><path d="M400,300 Q337,304 263,338" fill="none" stroke="#FAF6F0" stroke-width="0.7" opacity="0.86"/><path d="M400,300 Q384,300 364,308" fill="none" stroke="#ECE6DC" stroke-width="0.9" opacity="0.3"/><path d="M400,300 Q312,297 203,338" fill="none" stroke="#FEFCF8" stroke-width="1.1" opacity="0.37"/><path d="M400,300 Q381,298 358,306" fill="none" stroke="#F8F4EE" stroke-width="0.5" opacity="0.44"/><path d="M400,300 Q351,293 287,313" fill="none" stroke="#F2EDE6" stroke-width="0.7" opacity="0.51"/><path d="M400,300 Q321,284 212,314" fill="none" stroke="#FAF6F0" stroke-width="0.9" opacity="0.58"/><path d="M400,300 Q408,302 418,299" fill="none" stroke="#ECE6DC" stroke-width="1.1" opacity="0.65"/><path d="M400,300 Q302,270 161,300" fill="none" stroke="#FEFCF8" stroke-width="0.5" opacity="0.72"/><path d="M400,300 Q381,293 354,298" fill="none" stroke="#F8F4EE" stroke-width="0.7" opacity="0.79"/><path d="M400,300 Q365,285 312,293" fill="none" stroke="#F2EDE6" stroke-width="0.9" opacity="0.86"/><path d="M400,300 Q318,260 190,276" fill="none" stroke="#FAF6F0" stroke-width="1.1" opacity="0.3"/><path d="M400,300 Q406,303 415,302" fill="none" stroke="#ECE6DC" stroke-width="0.5" opacity="0.37"/><path d="M400,300 Q324,252 197,261" fill="none" stroke="#FEFCF8" stroke-width="0.7" opacity="0.44"/><path d="M400,300 Q373,281 325,283" fill="none" stroke="#F8F4EE" stroke-width="0.9" opacity="0.51"/><path d="M400,300 Q373,278 324,279" fill="none" stroke="#F2EDE6" stroke-width="1.1" opacity="0.58"/><path d="M400,300 Q343,250 238,248" fill="none" stroke="#FAF6F0" stroke-width="0.5" opacity="0.65"/><path d="M400,300 Q385,286 358,285" fill="none" stroke="#ECE6DC" stroke-width="0.7" opacity="0.72"/><path d="M400,300 Q355,251 265,244" fill="none" stroke="#FEFCF8" stroke-width="0.9" opacity="0.79"/><path d="M400,300 Q375,271 325,265" fill="none" stroke="#F8F4EE" stroke-width="1.1" opacity="0.86"/><path d="M400,300 Q367,256 297,247" fill="none" stroke="#F2EDE6" stroke-width="0.5" opacity="0.3"/><path d="M400,300 Q377,266 326,257" fill="none" stroke="#FAF6F0" stroke-width="0.7" opacity="0.37"/><path d="M400,300 Q374,256 311,242" fill="none" stroke="#ECE6DC" stroke-width="0.9" opacity="0.44"/><path d="M400,300 Q374,250 307,234" fill="none" stroke="#FEFCF8" stroke-width="1.1" opacity="0.51"/><path d="M400,300 Q391,280 365,273" fill="none" stroke="#F8F4EE" stroke-width="0.5" opacity="0.58"/><path d="M400,300 Q367,219 271,187" fill="none" stroke="#F2EDE6" stroke-width="0.7" opacity="0.65"/><path d="M400,300 Q397,290 386,286" fill="none" stroke="#FAF6F0" stroke-width="0.9" opacity="0.72"/><path d="M400,300 Q383,238 318,210" fill="none" stroke="#ECE6DC" stroke-width="1.1" opacity="0.79"/><path d="M400,300 Q385,236 324,206" fill="none" stroke="#FEFCF8" stroke-width="0.5" opacity="0.86"/><path d="M400,300 Q400,300 400,300" fill="none" stroke="#F8F4EE" stroke-width="0.7" opacity="0.3"/><path d="M400,300 Q387,194 299,137" fill="none" stroke="#F2EDE6" stroke-width="0.9" opacity="0.37"/><path d="M400,300 Q400,295 396,293" fill="none" stroke="#FAF6F0" stroke-width="1.1" opacity="0.44"/><path d="M400,300 Q399,244 360,212" fill="none" stroke="#ECE6DC" stroke-width="0.5" opacity="0.51"/><path d="M400,300 Q403,222 353,174" fill="none" stroke="#FEFCF8" stroke-width="0.7" opacity="0.58"/><path d="M400,300 Q400,304 402,307" fill="none" stroke="#F8F4EE" stroke-width="0.9" opacity="0.65"/><path d="M400,300 Q414,203 364,139" fill="none" stroke="#F2EDE6" stroke-width="1.1" opacity="0.72"/><path d="M400,300 Q404,279 395,265" fill="none" stroke="#FAF6F0" stroke-width="0.5" opacity="0.79"/><path d="M400,300 Q411,255 394,223" fill="none" stroke="#ECE6DC" stroke-width="0.7" opacity="0.86"/><path d="M400,300 Q421,233 400,183" fill="none" stroke="#FEFCF8" stroke-width="0.9" opacity="0.3"/><path d="M400,300 Q407,281 402,266" fill="none" stroke="#F8F4EE" stroke-width="1.1" opacity="0.37"/><path d="M400,300 Q427,236 417,185" fill="none" stroke="#F2EDE6" stroke-width="0.5" opacity="0.44"/><path d="M400,300 Q416,268 413,242" fill="none" stroke="#FAF6F0" stroke-width="0.7" opacity="0.51"/><path d="M400,300 Q428,251 427,208" fill="none" stroke="#ECE6DC" stroke-width="0.9" opacity="0.58"/><path d="M400,300 Q421,267 424,237" fill="none" stroke="#FEFCF8" stroke-width="1.1" opacity="0.65"/><path d="M400,300 Q432,254 440,212" fill="none" stroke="#F8F4EE" stroke-width="0.5" opacity="0.72"/><path d="M400,300 Q430,262 441,224" fill="none" stroke="#F2EDE6" stroke-width="0.7" opacity="0.79"/><path d="M400,300 Q420,277 428,254" fill="none" stroke="#FAF6F0" stroke-width="0.9" opacity="0.86"/><path d="M400,300 Q459,240 489,175" fill="none" stroke="#ECE6DC" stroke-width="1.1" opacity="0.3"/><path d="M400,300 Q404,296 406,292" fill="none" stroke="#FEFCF8" stroke-width="0.5" opacity="0.37"/><path d="M400,300 Q459,251 498,193" fill="none" stroke="#F8F4EE" stroke-width="0.7" opacity="0.44"/><path d="M400,300 Q440,270 468,233" fill="none" stroke="#F2EDE6" stroke-width="0.9" opacity="0.51"/><path d="M400,300 Q410,293 418,284" fill="none" stroke="#FAF6F0" stroke-width="1.1" opacity="0.58"/><path d="M400,300 Q491,246 565,169" fill="none" stroke="#ECE6DC" stroke-width="0.5" opacity="0.65"/><path d="M400,300 Q395,303 391,306" fill="none" stroke="#FEFCF8" stroke-width="0.7" opacity="0.72"/><path d="M400,300 Q466,269 527,218" fill="none" stroke="#F8F4EE" stroke-width="0.9" opacity="0.79"/><path d="M400,300 Q458,277 513,235" fill="none" stroke="#F2EDE6" stroke-width="1.1" opacity="0.86"/><path d="M400,300 Q403,299 407,296" fill="none" stroke="#FAF6F0" stroke-width="0.5" opacity="0.3"/><path d="M400,300 Q496,273 596,209" fill="none" stroke="#ECE6DC" stroke-width="0.7" opacity="0.37"/><path d="M400,300 Q410,298 421,291" fill="none" stroke="#FEFCF8" stroke-width="0.9" opacity="0.44"/><path d="M400,300 Q458,290 522,256" fill="none" stroke="#F8F4EE" stroke-width="1.1" opacity="0.51"/><path d="M400,300 Q461,293 532,258" fill="none" stroke="#F2EDE6" stroke-width="0.5" opacity="0.58"/><path d="M400,300 Q423,298 450,286" fill="none" stroke="#FAF6F0" stroke-width="0.7" opacity="0.65"/><path d="M400,300 Q471,299 558,263" fill="none" stroke="#ECE6DC" stroke-width="0.9" opacity="0.72"/><path d="M400,300 Q432,301 473,286" fill="none" stroke="#FEFCF8" stroke-width="1.1" opacity="0.79"/><path d="M400,300 Q458,305 533,280" fill="none" stroke="#F8F4EE" stroke-width="0.5" opacity="0.86"/><path d="M400,300 Q437,305 487,290" fill="none" stroke="#F2EDE6" stroke-width="0.7" opacity="0.3"/><path d="M400,300 Q458,312 538,290" fill="none" stroke="#FAF6F0" stroke-width="0.9" opacity="0.37"/><path d="M400,300 Q441,310 499,296" fill="none" stroke="#ECE6DC" stroke-width="1.1" opacity="0.44"/><ellipse cx="400" cy="300" rx="160" ry="130" fill="#FEFCF8" opacity="0.25"/><ellipse cx="400" cy="300" rx="80" ry="65" fill="#FEFDF8" opacity="0.2"/><rect width="800" height="600" filter="url(#g)" opacity="0.04"/></svg>